<?xml version="1.0" encoding="UTF-8" standalone="no"?>
<!DOCTYPE svg PUBLIC "-//W3C//DTD SVG 1.1//EN" "http://www.w3.org/Graphics/SVG/1.1/DTD/svg11.dtd">
<svg version="1.1" xmlns="http://www.w3.org/2000/svg" xmlns:xlink="http://www.w3.org/1999/xlink" preserveAspectRatio="xMidYMid meet" viewBox="0 0 1500 1000" width="1500" height="1000"><defs><path d="M116.63 463.47C63.86 463.47 21.21 420.8 21.21 368.03C21.21 315.26 63.86 272.59 116.63 272.59C169.42 272.59 212.06 315.26 212.06 368.03C212.06 420.8 169.42 463.47 116.63 463.47Z" id="a3EkMDSEV"></path><path d="M85.61 293.48L86.8 293.75L87.97 294.07L89.13 294.42L90.26 294.83L91.38 295.28L92.46 295.76L93.53 296.29L94.58 296.86L95.59 297.47L96.59 298.11L97.56 298.79L98.5 299.5L99.41 300.25L100.29 301.04L101.14 301.86L101.96 302.71L102.74 303.59L103.49 304.5L104.21 305.44L104.89 306.41L105.54 307.4L106.14 308.42L106.71 309.46L107.23 310.53L107.72 311.63L108.17 312.74L108.57 313.87L108.93 315.03L109.24 316.2L109.51 317.39L109.73 318.6L109.91 319.82L110.04 321.06L110.12 322.31L110.14 323.58L110.12 324.6L110.07 325.6L109.99 326.6L109.88 327.59L109.73 328.56L109.57 329.54L109.36 330.49L109.12 331.43L108.87 332.37L108.57 333.29L108.26 334.2L107.91 335.09L107.54 335.98L107.13 336.84L106.71 337.7L106.26 338.53L105.78 339.36L105.29 340.16L104.76 340.95L104.22 341.72L103.65 342.47L103.05 343.2L102.44 343.92L101.8 344.62L101.15 345.29L100.47 345.95L99.77 346.59L99.06 347.2L98.33 347.8L97.57 348.36L96.8 348.91L96.01 349.44L95.2 349.94L94.38 350.41L93.55 350.86L92.7 351.29L91.83 351.69L90.95 352.06L90.05 352.41L89.15 352.73L89.03 352.75L88.92 352.76L88.81 352.78L88.71 352.78L88.61 352.79L88.51 352.78L88.41 352.78L88.33 352.77L88.24 352.76L88.16 352.74L88.08 352.72L88 352.7L87.93 352.67L87.86 352.64L87.79 352.61L87.73 352.58L87.67 352.54L87.61 352.5L87.55 352.45L87.5 352.41L87.45 352.36L87.41 352.31L87.37 352.27L87.32 352.21L87.29 352.16L87.26 352.11L87.22 352.05L87.2 351.99L87.17 351.93L87.14 351.87L87.12 351.81L87.1 351.75L87.09 351.69L87.07 351.62L87.06 351.56L87.05 351.5L87.04 351.44L87.04 351.37L87.04 351.31L87.04 351.25L87.04 351.17L87.04 351.08L87.04 350.98L87.04 350.88L87.04 350.77L87.04 350.65L87.04 350.51L87.04 350.38L87.04 350.24L87.04 350.08L87.04 349.93L87.04 349.76L87.04 349.59L87.05 349.41L87.05 349.22L87.05 349.03L87.05 348.83L87.05 348.63L87.05 348.42L87.05 348.2L87.06 347.97L87.06 347.75L87.06 347.51L87.06 347.28L87.06 347.03L87.06 346.78L87.06 346.52L87.06 346.27L87.06 346.01L87.06 345.73L87.07 345.46L87.07 345.19L87.07 344.9L87.07 344.62L87.07 344.33L87.07 344.03L87.07 343.74L87.07 343.44L87.07 343.14L87.07 342.83L87.07 342.61L87.06 342.41L87.06 342.2L87.04 342L87.03 341.8L87.01 341.61L86.99 341.42L86.96 341.22L86.94 341.04L86.9 340.87L86.87 340.69L86.83 340.52L86.79 340.34L86.75 340.18L86.7 340.02L86.65 339.86L86.6 339.71L86.55 339.56L86.5 339.41L86.44 339.26L86.38 339.12L86.32 338.99L86.26 338.85L86.2 338.72L86.13 338.6L86.06 338.48L85.99 338.36L85.91 338.24L85.85 338.13L85.77 338.02L85.7 337.92L85.62 337.82L85.54 337.72L85.46 337.62L85.38 337.54L85.3 337.45L85.22 337.37L85.14 337.28L85.06 337.21L84.98 337.13L85.49 337.07L86.01 337L86.52 336.93L87.04 336.84L87.55 336.75L88.06 336.64L88.56 336.53L89.06 336.4L89.57 336.26L90.06 336.1L90.54 335.94L91.03 335.76L91.5 335.56L91.97 335.35L92.43 335.12L92.87 334.88L93.32 334.61L93.74 334.32L94.16 334.02L94.56 333.7L94.96 333.36L95.33 332.99L95.69 332.61L96.04 332.2L96.38 331.76L96.69 331.3L96.99 330.82L97.27 330.31L97.54 329.78L97.78 329.22L98.01 328.63L98.21 328.01L98.39 327.37L98.55 326.69L98.68 325.99L98.8 325.25L98.89 324.48L98.96 323.68L99 322.84L99.01 321.98L99.01 321.73L99 321.48L98.99 321.23L98.98 320.99L98.95 320.75L98.93 320.51L98.91 320.27L98.87 320.04L98.83 319.8L98.79 319.57L98.75 319.35L98.7 319.12L98.65 318.9L98.59 318.68L98.53 318.46L98.47 318.24L98.39 318.03L98.33 317.82L98.25 317.61L98.17 317.4L98.09 317.2L98 316.99L97.91 316.79L97.82 316.6L97.72 316.4L97.62 316.2L97.51 316.01L97.4 315.83L97.29 315.64L97.18 315.46L97.06 315.27L96.94 315.09L96.81 314.91L96.69 314.74L96.55 314.56L96.42 314.39L96.29 314.22L96.14 314.06L96 313.89L95.85 313.73L95.88 313.66L95.9 313.6L95.94 313.51L95.96 313.43L96 313.33L96.04 313.23L96.07 313.11L96.1 312.99L96.14 312.86L96.18 312.73L96.21 312.58L96.24 312.43L96.28 312.27L96.31 312.11L96.34 311.94L96.37 311.75L96.39 311.57L96.41 311.37L96.43 311.17L96.45 310.96L96.46 310.75L96.47 310.53L96.47 310.3L96.47 310.07L96.46 309.83L96.45 309.59L96.43 309.33L96.41 309.07L96.39 308.81L96.35 308.55L96.31 308.28L96.25 308L96.19 307.72L96.13 307.42L96.06 307.13L95.97 306.84L95.88 306.54L95.78 306.23L95.67 305.92L95.55 305.6L95.55 305.6L95.53 305.6L95.51 305.59L95.47 305.58L95.43 305.57L95.37 305.56L95.31 305.55L95.24 305.55L95.15 305.54L95.06 305.53L94.95 305.53L94.83 305.53L94.71 305.53L94.57 305.54L94.43 305.55L94.27 305.57L94.1 305.59L93.92 305.62L93.73 305.65L93.53 305.68L93.32 305.73L93.1 305.79L92.86 305.85L92.61 305.92L92.36 306.01L92.09 306.1L91.81 306.21L91.52 306.32L91.21 306.44L90.91 306.58L90.58 306.73L90.24 306.9L89.89 307.07L89.53 307.27L89.16 307.48L88.77 307.7L88.37 307.93L87.96 308.19L87.55 308.46L87.11 308.75L86.92 308.7L86.74 308.65L86.55 308.6L86.36 308.56L86.18 308.51L85.99 308.46L85.8 308.42L85.61 308.38L85.42 308.34L85.24 308.3L85.05 308.26L84.85 308.23L84.66 308.19L84.48 308.16L84.28 308.13L84.09 308.1L83.9 308.07L83.7 308.04L83.51 308.01L83.32 307.99L83.13 307.96L82.93 307.93L82.74 307.91L82.54 307.89L82.35 307.87L82.15 307.85L81.96 307.83L81.76 307.82L81.57 307.81L81.37 307.79L81.18 307.78L80.98 307.76L80.79 307.76L80.59 307.75L80.39 307.74L80.2 307.73L80 307.73L79.81 307.72L79.61 307.72L79.41 307.72L79.22 307.72L79.02 307.72L78.83 307.73L78.63 307.73L78.44 307.74L78.24 307.75L78.04 307.76L77.85 307.76L77.65 307.78L77.46 307.79L77.26 307.81L77.06 307.82L76.87 307.83L76.67 307.85L76.48 307.87L76.28 307.89L76.09 307.91L75.89 307.93L75.7 307.96L75.51 307.99L75.31 308.01L75.12 308.04L74.92 308.07L74.74 308.1L74.54 308.13L74.35 308.16L74.16 308.19L73.97 308.23L73.78 308.26L73.59 308.3L73.4 308.34L73.21 308.38L73.02 308.42L72.84 308.46L72.65 308.51L72.46 308.56L72.27 308.6L72.09 308.65L71.9 308.7L71.72 308.75L71.28 308.46L70.87 308.19L70.46 307.93L70.06 307.7L69.67 307.48L69.3 307.27L68.94 307.07L68.59 306.9L68.25 306.73L67.93 306.58L67.61 306.44L67.31 306.32L67.02 306.21L66.74 306.1L66.47 306.01L66.21 305.92L65.96 305.85L65.73 305.79L65.51 305.73L65.29 305.68L65.09 305.65L64.9 305.62L64.73 305.59L64.55 305.57L64.4 305.55L64.25 305.54L64.12 305.53L63.99 305.53L63.88 305.53L63.77 305.53L63.67 305.54L63.59 305.55L63.51 305.55L63.45 305.56L63.39 305.57L63.35 305.58L63.32 305.59L63.29 305.6L63.28 305.6L63.27 305.6L63.15 305.92L63.04 306.23L62.94 306.54L62.85 306.84L62.77 307.13L62.69 307.42L62.63 307.72L62.57 308L62.52 308.28L62.48 308.55L62.44 308.81L62.41 309.07L62.38 309.33L62.37 309.59L62.36 309.83L62.36 310.07L62.35 310.3L62.36 310.53L62.36 310.75L62.38 310.96L62.39 311.17L62.42 311.37L62.44 311.57L62.46 311.75L62.49 311.94L62.52 312.11L62.55 312.27L62.59 312.43L62.62 312.58L62.65 312.73L62.69 312.86L62.73 312.99L62.76 313.11L62.79 313.23L62.83 313.33L62.86 313.43L62.89 313.51L62.93 313.6L62.95 313.66L62.98 313.73L62.83 313.89L62.69 314.06L62.55 314.22L62.41 314.39L62.28 314.56L62.14 314.74L62.01 314.91L61.89 315.09L61.77 315.27L61.65 315.46L61.54 315.64L61.42 315.83L61.32 316.01L61.21 316.2L61.11 316.4L61.01 316.6L60.92 316.79L60.83 316.99L60.74 317.2L60.66 317.4L60.58 317.61L60.5 317.82L60.43 318.03L60.36 318.24L60.29 318.46L60.23 318.68L60.17 318.9L60.12 319.12L60.07 319.35L60.03 319.57L59.99 319.8L59.95 320.04L59.92 320.27L59.89 320.51L59.86 320.75L59.84 320.99L59.83 321.23L59.82 321.48L59.81 321.73L59.81 321.98L59.82 322.84L59.86 323.68L59.93 324.48L60.02 325.24L60.13 325.98L60.27 326.69L60.43 327.36L60.61 328L60.81 328.62L61.03 329.21L61.28 329.77L61.54 330.3L61.83 330.81L62.12 331.3L62.44 331.75L62.77 332.18L63.12 332.6L63.49 332.98L63.86 333.35L64.25 333.69L64.65 334.02L65.07 334.32L65.49 334.61L65.93 334.88L66.38 335.12L66.84 335.35L67.3 335.57L67.78 335.77L68.25 335.95L68.74 336.12L69.24 336.27L69.73 336.41L70.23 336.55L70.73 336.66L71.24 336.77L71.75 336.87L72.27 336.95L72.78 337.03L73.29 337.1L73.8 337.17L73.74 337.22L73.67 337.28L73.61 337.34L73.54 337.41L73.48 337.48L73.42 337.55L73.35 337.62L73.29 337.69L73.23 337.77L73.17 337.84L73.11 337.93L73.05 338.01L72.99 338.09L72.93 338.18L72.88 338.27L72.82 338.37L72.77 338.46L72.71 338.56L72.66 338.66L72.61 338.76L72.55 338.86L72.51 338.97L72.46 339.07L72.41 339.18L72.37 339.3L72.32 339.42L72.27 339.53L72.23 339.65L72.19 339.77L72.15 339.89L72.12 340.02L72.08 340.15L72.04 340.28L72.02 340.42L71.98 340.55L71.95 340.69L71.92 340.83L71.9 340.97L71.88 341.12L71.86 341.26L71.72 341.32L71.57 341.38L71.42 341.45L71.25 341.51L71.08 341.57L70.9 341.63L70.71 341.69L70.52 341.75L70.32 341.81L70.11 341.86L69.89 341.91L69.67 341.95L69.44 341.99L69.22 342.02L68.98 342.04L68.74 342.06L68.5 342.07L68.25 342.07L68.01 342.06L67.76 342.04L67.5 342.02L67.25 341.98L67 341.93L66.74 341.87L66.49 341.79L66.23 341.71L65.98 341.6L65.72 341.49L65.47 341.35L65.23 341.2L64.98 341.04L64.73 340.86L64.49 340.66L64.24 340.44L64.02 340.21L63.78 339.95L63.56 339.67L63.34 339.38L63.12 339.06L62.91 338.72L62.91 338.71L62.9 338.7L62.88 338.67L62.87 338.64L62.83 338.59L62.8 338.54L62.77 338.48L62.72 338.41L62.67 338.33L62.61 338.25L62.55 338.17L62.48 338.07L62.4 337.98L62.32 337.88L62.24 337.77L62.14 337.66L62.05 337.56L61.94 337.44L61.83 337.33L61.72 337.21L61.59 337.1L61.47 336.98L61.34 336.87L61.19 336.76L61.05 336.65L60.9 336.53L60.74 336.43L60.58 336.33L60.42 336.23L60.24 336.14L60.07 336.04L59.88 335.96L59.69 335.88L59.5 335.82L59.29 335.75L59.09 335.69L58.88 335.64L58.66 335.6L58.43 335.57L58.21 335.55L58.2 335.55L58.19 335.55L58.16 335.55L58.13 335.55L58.08 335.55L58.04 335.55L57.98 335.55L57.92 335.56L57.85 335.57L57.78 335.57L57.71 335.58L57.63 335.59L57.56 335.61L57.48 335.62L57.41 335.63L57.33 335.66L57.26 335.68L57.18 335.71L57.12 335.74L57.06 335.77L57 335.8L56.95 335.84L56.9 335.89L56.87 335.94L56.84 335.99L56.82 336.04L56.81 336.1L56.82 336.17L56.83 336.25L56.86 336.32L56.9 336.4L56.95 336.49L57.02 336.58L57.1 336.68L57.2 336.79L57.33 336.9L57.47 337.02L57.62 337.15L57.8 337.27L58 337.41L58 337.42L58.01 337.42L58.03 337.43L58.06 337.45L58.09 337.47L58.13 337.48L58.17 337.52L58.22 337.54L58.27 337.58L58.33 337.62L58.4 337.66L58.47 337.72L58.54 337.77L58.63 337.83L58.71 337.91L58.8 337.97L58.89 338.05L58.98 338.14L59.08 338.23L59.18 338.33L59.28 338.44L59.39 338.55L59.5 338.67L59.6 338.79L59.72 338.93L59.83 339.07L59.94 339.21L60.05 339.37L60.17 339.54L60.29 339.71L60.4 339.89L60.52 340.07L60.64 340.27L60.74 340.48L60.87 340.69L60.98 340.92L61.09 341.15L61.19 341.39L61.31 341.65L61.42 341.91L61.42 341.92L61.43 341.95L61.44 342L61.47 342.07L61.5 342.16L61.55 342.26L61.6 342.38L61.67 342.51L61.74 342.65L61.83 342.81L61.93 342.98L62.03 343.14L62.16 343.33L62.28 343.51L62.44 343.7L62.59 343.89L62.77 344.08L62.95 344.28L63.16 344.47L63.38 344.66L63.62 344.85L63.87 345.03L64.14 345.21L64.43 345.37L64.73 345.54L65.05 345.69L65.39 345.83L65.76 345.96L66.13 346.07L66.54 346.17L66.96 346.25L67.4 346.31L67.87 346.36L68.35 346.38L68.86 346.38L69.39 346.36L69.95 346.31L70.53 346.25L71.13 346.15L71.76 346.03L71.76 346.21L71.76 346.41L71.76 346.59L71.77 346.78L71.77 346.96L71.77 347.13L71.77 347.31L71.77 347.48L71.77 347.66L71.77 347.82L71.77 347.99L71.77 348.15L71.77 348.31L71.77 348.61L71.78 348.76L71.78 348.91L71.78 349.06L71.78 349.19L71.78 349.32L71.78 349.46L71.79 349.59L71.79 349.71L71.79 349.83L71.79 349.96L71.79 350.07L71.79 350.18L71.79 350.28L71.79 350.39L71.79 350.49L71.79 350.59L71.79 350.67L71.79 350.76L71.79 350.84L71.79 350.92L71.79 351L71.79 351.06L71.79 351.13L71.79 351.19L71.79 351.25L71.79 351.31L71.79 351.37L71.79 351.44L71.77 351.5L71.77 351.56L71.75 351.62L71.74 351.69L71.72 351.75L71.71 351.8L71.68 351.87L71.66 351.92L71.63 351.98L71.61 352.04L71.57 352.1L71.54 352.15L71.5 352.21L71.47 352.26L71.42 352.31L71.37 352.35L71.32 352.4L71.27 352.45L71.22 352.49L71.16 352.53L71.1 352.57L71.04 352.6L70.98 352.64L70.91 352.66L70.83 352.69L70.76 352.72L70.68 352.74L70.59 352.75L70.51 352.76L70.42 352.78L70.33 352.78L70.23 352.78L70.14 352.78L70.03 352.78L69.93 352.76L69.82 352.75L69.7 352.73L68.79 352.41L67.9 352.06L67.01 351.7L66.15 351.29L65.29 350.87L64.45 350.42L63.63 349.94L62.83 349.45L62.03 348.91L61.27 348.37L60.52 347.8L59.78 347.21L59.06 346.59L58.37 345.96L57.69 345.3L57.03 344.62L56.39 343.92L55.78 343.21L55.19 342.47L54.62 341.72L54.07 340.95L53.55 340.16L53.05 339.36L52.57 338.54L52.12 337.7L51.7 336.84L51.29 335.98L50.92 335.1L50.57 334.2L50.26 333.29L49.96 332.37L49.7 331.44L49.47 330.49L49.27 329.54L49.1 328.57L48.95 327.59L48.84 326.6L48.75 325.6L48.71 324.6L48.69 323.58L48.71 322.31L48.79 321.06L48.92 319.82L49.1 318.6L49.32 317.39L49.59 316.2L49.9 315.03L50.26 313.87L50.66 312.74L51.11 311.63L51.6 310.53L52.12 309.46L52.69 308.42L53.3 307.4L53.94 306.41L54.62 305.44L55.34 304.5L56.09 303.59L56.88 302.71L57.69 301.86L58.54 301.04L59.42 300.25L60.34 299.5L61.28 298.79L62.24 298.11L63.24 297.47L64.25 296.86L65.3 296.29L66.37 295.76L67.46 295.28L68.57 294.83L69.71 294.42L70.86 294.07L72.03 293.75L73.23 293.48L74.43 293.26L75.66 293.09L76.89 292.96L78.15 292.89L79.41 292.86L80.68 292.89L81.94 292.96L83.17 293.09L84.4 293.26L85.61 293.48Z" id="b2p7pxbtTK"></path><path d="M157.86 420.23C110.79 420.23 84.64 420.23 79.41 420.23C76.16 420.23 73.52 417.6 73.52 414.35C73.52 414.35 73.52 414.35 73.52 414.35C73.52 353.15 73.52 319.16 73.52 312.36C73.52 309.11 76.16 306.47 79.41 306.47C87.25 306.47 150.02 306.47 157.86 306.47C161.11 306.47 163.75 309.11 163.75 312.36C163.75 312.36 163.75 312.36 163.75 312.36C163.75 322.56 163.75 404.15 163.75 414.35C161.99 418.27 160.03 420.23 157.86 420.23C157.86 420.23 157.86 420.23 157.86 420.23Z" id="cUXbxhVnq"></path><path d="M157.86 420.23C110.79 420.23 84.64 420.23 79.41 420.23C76.16 420.23 73.52 417.6 73.52 414.35C73.52 414.35 73.52 414.35 73.52 414.35C73.52 353.15 73.52 319.16 73.52 312.36C73.52 309.11 76.16 306.47 79.41 306.47C87.25 306.47 150.02 306.47 157.86 306.47C161.11 306.47 163.75 309.11 163.75 312.36C163.75 312.36 163.75 312.36 163.75 312.36C163.75 322.56 163.75 404.15 163.75 414.35C161.99 418.27 160.03 420.23 157.86 420.23C157.86 420.23 157.86 420.23 157.86 420.23Z" id="a1XvWOjBGw"></path><path d="M61.75 414.35C61.75 414.35 61.75 414.35 61.75 414.35C61.75 413.96 61.75 412 61.75 408.47C115.89 408.47 145.96 408.47 151.98 408.47C151.98 412 151.98 413.96 151.98 414.35C151.98 417.6 154.61 420.23 157.86 420.23C157.86 420.23 157.86 420.23 157.86 420.23C103.73 420.23 73.65 420.23 67.64 420.23C64.39 420.23 61.75 417.6 61.75 414.35Z" id="d47A6bpa"></path><path d="M61.75 414.35C61.75 414.35 61.75 414.35 61.75 414.35C61.75 413.96 61.75 412 61.75 408.47C115.89 408.47 145.96 408.47 151.98 408.47C151.98 412 151.98 413.96 151.98 414.35C151.98 417.6 154.61 420.23 157.86 420.23C157.86 420.23 157.86 420.23 157.86 420.23C103.73 420.23 73.65 420.23 67.64 420.23C64.39 420.23 61.75 417.6 61.75 414.35Z" id="aJvC59brE"></path><path d="M100.98 337.85C100.98 351.98 100.98 359.82 100.98 361.39C100.98 361.39 100.98 361.39 100.98 361.39C77.45 361.39 64.37 361.39 61.75 361.39C61.75 361.39 61.75 361.39 61.75 361.39C61.75 347.27 61.75 339.42 61.75 337.85C61.75 337.85 61.75 337.85 61.75 337.85C85.29 337.85 98.37 337.85 100.98 337.85C100.98 337.85 100.98 337.85 100.98 337.85Z" id="a18XD5HNEu"></path><path d="M100.98 337.85C100.98 351.98 100.98 359.82 100.98 361.39C100.98 361.39 100.98 361.39 100.98 361.39C77.45 361.39 64.37 361.39 61.75 361.39C61.75 361.39 61.75 361.39 61.75 361.39C61.75 347.27 61.75 339.42 61.75 337.85C61.75 337.85 61.75 337.85 61.75 337.85C85.29 337.85 98.37 337.85 100.98 337.85C100.98 337.85 100.98 337.85 100.98 337.85Z" id="d2qhlimv5J"></path><path d="M68.21 346.9C68.47 346.63 69.78 345.33 72.14 342.97C72.32 343.16 73.25 344.08 74.91 345.74L72.37 348.28L74.91 350.82C73.25 352.48 72.32 353.41 72.14 353.59C69.78 351.24 68.47 349.93 68.21 349.67C67.45 348.9 67.45 347.66 68.21 346.9Z" id="k35LIrGUhX"></path><path d="M68.21 346.9C68.47 346.63 69.78 345.33 72.14 342.97C72.32 343.16 73.25 344.08 74.91 345.74L72.37 348.28L74.91 350.82C73.25 352.48 72.32 353.41 72.14 353.59C69.78 351.24 68.47 349.93 68.21 349.67C67.45 348.9 67.45 347.66 68.21 346.9Z" id="aexoHXKTB"></path><path d="M90.36 348.28L87.83 345.74C89.49 344.08 90.41 343.16 90.6 342.97C92.95 345.33 94.26 346.63 94.52 346.9C95.29 347.66 95.29 348.9 94.52 349.67C94.26 349.93 92.95 351.24 90.6 353.59C90.41 353.41 89.49 352.48 87.83 350.82L90.36 348.28Z" id="g2lW1mxzgJ"></path><path d="M90.36 348.28L87.83 345.74C89.49 344.08 90.41 343.16 90.6 342.97C92.95 345.33 94.26 346.63 94.52 346.9C95.29 347.66 95.29 348.9 94.52 349.67C94.26 349.93 92.95 351.24 90.6 353.59C90.41 353.41 89.49 352.48 87.83 350.82L90.36 348.28Z" id="b2pBUuZQS9"></path><path d="M81.47 341.78C83.7 342.52 84.94 342.94 85.19 343.02C85.19 343.02 85.19 343.02 85.19 343.02C82.83 350.08 81.53 354 81.26 354.79C81.26 354.79 81.26 354.79 81.26 354.79C79.03 354.04 77.79 353.63 77.54 353.55C77.54 353.55 77.54 353.55 77.54 353.55C79.9 346.49 81.21 342.56 81.47 341.78C81.47 341.78 81.47 341.78 81.47 341.78Z" id="a8slUgFth"></path><path d="M81.47 341.78C83.7 342.52 84.94 342.94 85.19 343.02C85.19 343.02 85.19 343.02 85.19 343.02C82.83 350.08 81.53 354 81.26 354.79C81.26 354.79 81.26 354.79 81.26 354.79C79.03 354.04 77.79 353.63 77.54 353.55C77.54 353.55 77.54 353.55 77.54 353.55C79.9 346.49 81.21 342.56 81.47 341.78C81.47 341.78 81.47 341.78 81.47 341.78Z" id="c6HphKbvt"></path><path d="M175.52 318.24C175.52 341.78 175.52 354.85 175.52 357.47C175.52 357.47 175.52 357.47 175.52 357.47C135.5 357.47 113.27 357.47 108.83 357.47C108.83 357.47 108.83 357.47 108.83 357.47C108.83 333.93 108.83 320.86 108.83 318.24C108.83 318.24 108.83 318.24 108.83 318.24C148.84 318.24 171.07 318.24 175.52 318.24C175.52 318.24 175.52 318.24 175.52 318.24Z" id="a12xvTSYTt"></path><path d="M175.52 318.24C175.52 341.78 175.52 354.85 175.52 357.47C175.52 357.47 175.52 357.47 175.52 357.47C135.5 357.47 113.27 357.47 108.83 357.47C108.83 357.47 108.83 357.47 108.83 357.47C108.83 333.93 108.83 320.86 108.83 318.24C108.83 318.24 108.83 318.24 108.83 318.24C148.84 318.24 171.07 318.24 175.52 318.24C175.52 318.24 175.52 318.24 175.52 318.24Z" id="i98lDfmF7"></path><path d="M146.64 349.62L128.44 337.85L108.83 349.62L108.83 357.47L175.52 357.47L175.52 349.62L161.79 341.78L146.64 349.62Z" id="b26yOIBGg"></path><path d="M146.64 349.62L128.44 337.85L108.83 349.62L108.83 357.47L175.52 357.47L175.52 349.62L161.79 341.78L146.64 349.62Z" id="a60aLSKTR9"></path><path d="M148.06 330.99C148.06 333.7 150.25 335.89 152.96 335.89C155.67 335.89 157.86 333.7 157.86 330.99C157.86 328.28 155.67 326.09 152.96 326.09C150.25 326.09 148.06 328.28 148.06 330.99Z" id="a40LBjIrh7"></path><path d="M148.06 330.99C148.06 333.7 150.25 335.89 152.96 335.89C155.67 335.89 157.86 333.7 157.86 330.99C157.86 328.28 155.67 326.09 152.96 326.09C150.25 326.09 148.06 328.28 148.06 330.99Z" id="adcAtZeWC"></path><path d="M130.4 369.24C130.4 383.36 130.4 391.21 130.4 392.77C130.4 392.77 130.4 392.77 130.4 392.77C100.98 392.77 84.64 392.77 81.37 392.77C81.37 392.77 81.37 392.77 81.37 392.77C81.37 378.65 81.37 370.81 81.37 369.24C81.37 369.24 81.37 369.24 81.37 369.24C110.79 369.24 127.13 369.24 130.4 369.24C130.4 369.24 130.4 369.24 130.4 369.24Z" id="c3t5YWW6F"></path><path d="M130.4 369.24C130.4 383.36 130.4 391.21 130.4 392.77C130.4 392.77 130.4 392.77 130.4 392.77C100.98 392.77 84.64 392.77 81.37 392.77C81.37 392.77 81.37 392.77 81.37 392.77C81.37 378.65 81.37 370.81 81.37 369.24C81.37 369.24 81.37 369.24 81.37 369.24C110.79 369.24 127.13 369.24 130.4 369.24C130.4 369.24 130.4 369.24 130.4 369.24Z" id="f5THGsvwCM"></path><path d="M95.1 375.12C95.1 377.48 95.1 378.78 95.1 379.04C95.1 379.04 95.1 379.04 95.1 379.04C90.39 379.04 87.77 379.04 87.25 379.04C87.25 379.04 87.25 379.04 87.25 379.04C87.25 376.69 87.25 375.38 87.25 375.12C87.25 375.12 87.25 375.12 87.25 375.12C91.96 375.12 94.57 375.12 95.1 375.12C95.1 375.12 95.1 375.12 95.1 375.12Z" id="bTkcaDji1"></path><path d="M95.1 375.12C95.1 377.48 95.1 378.78 95.1 379.04C95.1 379.04 95.1 379.04 95.1 379.04C90.39 379.04 87.77 379.04 87.25 379.04C87.25 379.04 87.25 379.04 87.25 379.04C87.25 376.69 87.25 375.38 87.25 375.12C87.25 375.12 87.25 375.12 87.25 375.12C91.96 375.12 94.57 375.12 95.1 375.12C95.1 375.12 95.1 375.12 95.1 375.12Z" id="e3iuGuIHyX"></path><path d="M116.67 375.12C116.67 377.48 116.67 378.78 116.67 379.04C116.67 379.04 116.67 379.04 116.67 379.04C106.08 379.04 100.2 379.04 99.02 379.04C99.02 379.04 99.02 379.04 99.02 379.04C99.02 376.69 99.02 375.38 99.02 375.12C99.02 375.12 99.02 375.12 99.02 375.12C109.61 375.12 115.5 375.12 116.67 375.12C116.67 375.12 116.67 375.12 116.67 375.12Z" id="i6TdTbvPDX"></path><path d="M116.67 375.12C116.67 377.48 116.67 378.78 116.67 379.04C116.67 379.04 116.67 379.04 116.67 379.04C106.08 379.04 100.2 379.04 99.02 379.04C99.02 379.04 99.02 379.04 99.02 379.04C99.02 376.69 99.02 375.38 99.02 375.12C99.02 375.12 99.02 375.12 99.02 375.12C109.61 375.12 115.5 375.12 116.67 375.12C116.67 375.12 116.67 375.12 116.67 375.12Z" id="a21qBAMw6a"></path><path d="M124.52 375.12C124.52 377.48 124.52 378.78 124.52 379.04C124.52 379.04 124.52 379.04 124.52 379.04C122.16 379.04 120.86 379.04 120.6 379.04C120.6 379.04 120.6 379.04 120.6 379.04C120.6 376.69 120.6 375.38 120.6 375.12C120.6 375.12 120.6 375.12 120.6 375.12C122.95 375.12 124.26 375.12 124.52 375.12C124.52 375.12 124.52 375.12 124.52 375.12Z" id="b1aI0a8OvQ"></path><path d="M124.52 375.12C124.52 377.48 124.52 378.78 124.52 379.04C124.52 379.04 124.52 379.04 124.52 379.04C122.16 379.04 120.86 379.04 120.6 379.04C120.6 379.04 120.6 379.04 120.6 379.04C120.6 376.69 120.6 375.38 120.6 375.12C120.6 375.12 120.6 375.12 120.6 375.12C122.95 375.12 124.26 375.12 124.52 375.12C124.52 375.12 124.52 375.12 124.52 375.12Z" id="jH9QOXaHx"></path><path d="M110.79 382.97C110.79 385.32 110.79 386.63 110.79 386.89C110.79 386.89 110.79 386.89 110.79 386.89C96.67 386.89 88.82 386.89 87.25 386.89C87.25 386.89 87.25 386.89 87.25 386.89C87.25 384.54 87.25 383.23 87.25 382.97C87.25 382.97 87.25 382.97 87.25 382.97C101.37 382.97 109.22 382.97 110.79 382.97C110.79 382.97 110.79 382.97 110.79 382.97Z" id="b1YS1X3dcl"></path><path d="M110.79 382.97C110.79 385.32 110.79 386.63 110.79 386.89C110.79 386.89 110.79 386.89 110.79 386.89C96.67 386.89 88.82 386.89 87.25 386.89C87.25 386.89 87.25 386.89 87.25 386.89C87.25 384.54 87.25 383.23 87.25 382.97C87.25 382.97 87.25 382.97 87.25 382.97C101.37 382.97 109.22 382.97 110.79 382.97C110.79 382.97 110.79 382.97 110.79 382.97Z" id="a1RQNEWuc"></path><path d="M124.52 382.97C124.52 385.32 124.52 386.63 124.52 386.89C124.52 386.89 124.52 386.89 124.52 386.89C118.63 386.89 115.37 386.89 114.71 386.89C114.71 386.89 114.71 386.89 114.71 386.89C114.71 384.54 114.71 383.23 114.71 382.97C114.71 382.97 114.71 382.97 114.71 382.97C120.6 382.97 123.86 382.97 124.52 382.97C124.52 382.97 124.52 382.97 124.52 382.97Z" id="e2CEA6B6kS"></path><path d="M124.52 382.97C124.52 385.32 124.52 386.63 124.52 386.89C124.52 386.89 124.52 386.89 124.52 386.89C118.63 386.89 115.37 386.89 114.71 386.89C114.71 386.89 114.71 386.89 114.71 386.89C114.71 384.54 114.71 383.23 114.71 382.97C114.71 382.97 114.71 382.97 114.71 382.97C120.6 382.97 123.86 382.97 124.52 382.97C124.52 382.97 124.52 382.97 124.52 382.97Z" id="c41fnBbtx"></path><path d="M83.33 312.36C83.33 314.71 83.33 316.02 83.33 316.28C83.33 316.28 83.33 316.28 83.33 316.28C80.98 316.28 79.67 316.28 79.41 316.28C79.41 316.28 79.41 316.28 79.41 316.28C79.41 313.93 79.41 312.62 79.41 312.36C79.41 312.36 79.41 312.36 79.41 312.36C81.76 312.36 83.07 312.36 83.33 312.36C83.33 312.36 83.33 312.36 83.33 312.36Z" id="b84tbyrAXf"></path><path d="M83.33 312.36C83.33 314.71 83.33 316.02 83.33 316.28C83.33 316.28 83.33 316.28 83.33 316.28C80.98 316.28 79.67 316.28 79.41 316.28C79.41 316.28 79.41 316.28 79.41 316.28C79.41 313.93 79.41 312.62 79.41 312.36C79.41 312.36 79.41 312.36 79.41 312.36C81.76 312.36 83.07 312.36 83.33 312.36C83.33 312.36 83.33 312.36 83.33 312.36Z" id="b9UQ9OlkV1"></path><path d="M91.18 312.36C91.18 314.71 91.18 316.02 91.18 316.28C91.18 316.28 91.18 316.28 91.18 316.28C88.82 316.28 87.51 316.28 87.25 316.28C87.25 316.28 87.25 316.28 87.25 316.28C87.25 313.93 87.25 312.62 87.25 312.36C87.25 312.36 87.25 312.36 87.25 312.36C89.61 312.36 90.91 312.36 91.18 312.36C91.18 312.36 91.18 312.36 91.18 312.36Z" id="hd4q3x85Z"></path><path d="M91.18 312.36C91.18 314.71 91.18 316.02 91.18 316.28C91.18 316.28 91.18 316.28 91.18 316.28C88.82 316.28 87.51 316.28 87.25 316.28C87.25 316.28 87.25 316.28 87.25 316.28C87.25 313.93 87.25 312.62 87.25 312.36C87.25 312.36 87.25 312.36 87.25 312.36C89.61 312.36 90.91 312.36 91.18 312.36C91.18 312.36 91.18 312.36 91.18 312.36Z" id="d3FpV4Bggm"></path><path d="M99.02 312.36C99.02 314.71 99.02 316.02 99.02 316.28C99.02 316.28 99.02 316.28 99.02 316.28C96.67 316.28 95.36 316.28 95.1 316.28C95.1 316.28 95.1 316.28 95.1 316.28C95.1 313.93 95.1 312.62 95.1 312.36C95.1 312.36 95.1 312.36 95.1 312.36C97.45 312.36 98.76 312.36 99.02 312.36C99.02 312.36 99.02 312.36 99.02 312.36Z" id="d1U6g6Dnm"></path><path d="M99.02 312.36C99.02 314.71 99.02 316.02 99.02 316.28C99.02 316.28 99.02 316.28 99.02 316.28C96.67 316.28 95.36 316.28 95.1 316.28C95.1 316.28 95.1 316.28 95.1 316.28C95.1 313.93 95.1 312.62 95.1 312.36C95.1 312.36 95.1 312.36 95.1 312.36C97.45 312.36 98.76 312.36 99.02 312.36C99.02 312.36 99.02 312.36 99.02 312.36Z" id="aNZ3f6mE0"></path><path d="M102.94 320.2C102.94 322.56 102.94 323.86 102.94 324.12C102.94 324.12 102.94 324.12 102.94 324.12C88.82 324.12 80.98 324.12 79.41 324.12C79.41 324.12 79.41 324.12 79.41 324.12C79.41 321.77 79.41 320.46 79.41 320.2C79.41 320.2 79.41 320.2 79.41 320.2C93.53 320.2 101.37 320.2 102.94 320.2C102.94 320.2 102.94 320.2 102.94 320.2Z" id="c5aMKD9W6"></path><path d="M102.94 320.2C102.94 322.56 102.94 323.86 102.94 324.12C102.94 324.12 102.94 324.12 102.94 324.12C88.82 324.12 80.98 324.12 79.41 324.12C79.41 324.12 79.41 324.12 79.41 324.12C79.41 321.77 79.41 320.46 79.41 320.2C79.41 320.2 79.41 320.2 79.41 320.2C93.53 320.2 101.37 320.2 102.94 320.2C102.94 320.2 102.94 320.2 102.94 320.2Z" id="b4zVpSGqYl"></path><path d="M175.52 377.08C175.52 391.21 175.52 399.05 175.52 400.62C175.52 400.62 175.52 400.62 175.52 400.62C153.16 400.62 140.73 400.62 138.25 400.62C138.25 400.62 138.25 400.62 138.25 400.62C138.25 386.5 138.25 378.65 138.25 377.08C138.25 377.08 138.25 377.08 138.25 377.08C160.61 377.08 173.03 377.08 175.52 377.08C175.52 377.08 175.52 377.08 175.52 377.08Z" id="a2B9mQPLjO"></path><path d="M175.52 377.08C175.52 391.21 175.52 399.05 175.52 400.62C175.52 400.62 175.52 400.62 175.52 400.62C153.16 400.62 140.73 400.62 138.25 400.62C138.25 400.62 138.25 400.62 138.25 400.62C138.25 386.5 138.25 378.65 138.25 377.08C138.25 377.08 138.25 377.08 138.25 377.08C160.61 377.08 173.03 377.08 175.52 377.08C175.52 377.08 175.52 377.08 175.52 377.08Z" id="b32UwJVfE1"></path><path d="M148.06 382.97C148.06 385.32 148.06 386.63 148.06 386.89C148.06 386.89 148.06 386.89 148.06 386.89C145.7 386.89 144.39 386.89 144.13 386.89C144.13 386.89 144.13 386.89 144.13 386.89C144.13 384.54 144.13 383.23 144.13 382.97C144.13 382.97 144.13 382.97 144.13 382.97C146.49 382.97 147.79 382.97 148.06 382.97C148.06 382.97 148.06 382.97 148.06 382.97Z" id="d3ywDvzr5g"></path><path d="M148.06 382.97C148.06 385.32 148.06 386.63 148.06 386.89C148.06 386.89 148.06 386.89 148.06 386.89C145.7 386.89 144.39 386.89 144.13 386.89C144.13 386.89 144.13 386.89 144.13 386.89C144.13 384.54 144.13 383.23 144.13 382.97C144.13 382.97 144.13 382.97 144.13 382.97C146.49 382.97 147.79 382.97 148.06 382.97C148.06 382.97 148.06 382.97 148.06 382.97Z" id="f3ncVK3q1s"></path><path d="M148.06 390.81C148.06 393.17 148.06 394.47 148.06 394.74C148.06 394.74 148.06 394.74 148.06 394.74C145.7 394.74 144.39 394.74 144.13 394.74C144.13 394.74 144.13 394.74 144.13 394.74C144.13 392.38 144.13 391.07 144.13 390.81C144.13 390.81 144.13 390.81 144.13 390.81C146.49 390.81 147.79 390.81 148.06 390.81C148.06 390.81 148.06 390.81 148.06 390.81Z" id="a1u3pmJSN"></path><path d="M148.06 390.81C148.06 393.17 148.06 394.47 148.06 394.74C148.06 394.74 148.06 394.74 148.06 394.74C145.7 394.74 144.39 394.74 144.13 394.74C144.13 394.74 144.13 394.74 144.13 394.74C144.13 392.38 144.13 391.07 144.13 390.81C144.13 390.81 144.13 390.81 144.13 390.81C146.49 390.81 147.79 390.81 148.06 390.81C148.06 390.81 148.06 390.81 148.06 390.81Z" id="b2j4f2cgZn"></path><path d="M169.63 382.97C169.63 385.32 169.63 386.63 169.63 386.89C169.63 386.89 169.63 386.89 169.63 386.89C159.04 386.89 153.16 386.89 151.98 386.89C151.98 386.89 151.98 386.89 151.98 386.89C151.98 384.54 151.98 383.23 151.98 382.97C151.98 382.97 151.98 382.97 151.98 382.97C162.57 382.97 168.45 382.97 169.63 382.97C169.63 382.97 169.63 382.97 169.63 382.97Z" id="a3a6pQRVwW"></path><path d="M169.63 382.97C169.63 385.32 169.63 386.63 169.63 386.89C169.63 386.89 169.63 386.89 169.63 386.89C159.04 386.89 153.16 386.89 151.98 386.89C151.98 386.89 151.98 386.89 151.98 386.89C151.98 384.54 151.98 383.23 151.98 382.97C151.98 382.97 151.98 382.97 151.98 382.97C162.57 382.97 168.45 382.97 169.63 382.97C169.63 382.97 169.63 382.97 169.63 382.97Z" id="h9uZAmJ0g"></path><path d="M169.63 390.81C169.63 393.17 169.63 394.47 169.63 394.74C169.63 394.74 169.63 394.74 169.63 394.74C159.04 394.74 153.16 394.74 151.98 394.74C151.98 394.74 151.98 394.74 151.98 394.74C151.98 392.38 151.98 391.07 151.98 390.81C151.98 390.81 151.98 390.81 151.98 390.81C162.57 390.81 168.45 390.81 169.63 390.81C169.63 390.81 169.63 390.81 169.63 390.81Z" id="awZWaWqJ"></path><path d="M169.63 390.81C169.63 393.17 169.63 394.47 169.63 394.74C169.63 394.74 169.63 394.74 169.63 394.74C159.04 394.74 153.16 394.74 151.98 394.74C151.98 394.74 151.98 394.74 151.98 394.74C151.98 392.38 151.98 391.07 151.98 390.81C151.98 390.81 151.98 390.81 151.98 390.81C162.57 390.81 168.45 390.81 169.63 390.81C169.63 390.81 169.63 390.81 169.63 390.81Z" id="b17z8ncD0Q"></path><path d="M163.75 357.47C163.75 359.82 163.75 361.13 163.75 361.39C163.75 361.39 163.75 361.39 163.75 361.39C133.15 361.39 116.15 361.39 112.75 361.39C112.75 361.39 112.75 361.39 112.75 361.39C112.75 359.04 112.75 357.73 112.75 357.47C112.75 357.47 112.75 357.47 112.75 357.47C143.35 357.47 160.35 357.47 163.75 357.47C163.75 357.47 163.75 357.47 163.75 357.47Z" id="a3g1yNeBFl"></path><path d="M163.75 357.47C163.75 359.82 163.75 361.13 163.75 361.39C163.75 361.39 163.75 361.39 163.75 361.39C133.15 361.39 116.15 361.39 112.75 361.39C112.75 361.39 112.75 361.39 112.75 361.39C112.75 359.04 112.75 357.73 112.75 357.47C112.75 357.47 112.75 357.47 112.75 357.47C143.35 357.47 160.35 357.47 163.75 357.47C163.75 357.47 163.75 357.47 163.75 357.47Z" id="b46wVSSDbB"></path><path d="M163.75 400.62C163.75 402.97 163.75 404.28 163.75 404.54C163.75 404.54 163.75 404.54 163.75 404.54C150.8 404.54 143.61 404.54 142.17 404.54C142.17 404.54 142.17 404.54 142.17 404.54C142.17 402.19 142.17 400.88 142.17 400.62C142.17 400.62 142.17 400.62 142.17 400.62C155.12 400.62 162.31 400.62 163.75 400.62C163.75 400.62 163.75 400.62 163.75 400.62Z" id="a36FMum6wr"></path><path d="M163.75 400.62C163.75 402.97 163.75 404.28 163.75 404.54C163.75 404.54 163.75 404.54 163.75 404.54C150.8 404.54 143.61 404.54 142.17 404.54C142.17 404.54 142.17 404.54 142.17 404.54C142.17 402.19 142.17 400.88 142.17 400.62C142.17 400.62 142.17 400.62 142.17 400.62C155.12 400.62 162.31 400.62 163.75 400.62C163.75 400.62 163.75 400.62 163.75 400.62Z" id="a1GlWmJO3X"></path><path d="M73.52 361.39L73.52 365.31L104.9 365.31L104.9 341.78L100.98 341.78L100.98 361.39L73.52 361.39Z" id="b2ZlvL2hWz"></path><path d="M73.52 361.39L73.52 365.31L104.9 365.31L104.9 341.78L100.98 341.78L100.98 361.39L73.52 361.39Z" id="e1C35sR7Qx"></path><path d="M85.29 392.77L85.29 396.7L134.33 396.7L134.33 373.16L130.4 373.16L130.4 392.77L85.29 392.77Z" id="f3Uv82KRez"></path><path d="M85.29 392.77L85.29 396.7L134.33 396.7L134.33 373.16L130.4 373.16L130.4 392.77L85.29 392.77Z" id="h4recjF1gT"></path><path d="M1379 838.15C1327.59 838.15 1286.05 796.59 1286.05 745.18C1286.05 693.79 1327.59 652.23 1379 652.23C1430.41 652.23 1471.96 693.79 1471.96 745.18C1471.96 796.59 1430.41 838.15 1379 838.15Z" id="a5bRa9e5b"></path><path d="M1343.44 725.75C1344.8 718.25 1345.56 714.08 1345.71 713.25C1346.27 710.16 1348.96 707.93 1352.09 707.93C1352.81 707.93 1356.41 707.93 1362.88 707.93C1362.88 750.54 1362.88 774.21 1362.88 778.95C1362.88 781.04 1361.54 782.9 1359.56 783.56C1358.81 783.81 1355.06 785.06 1348.3 787.31C1348.3 787.75 1348.3 789.91 1348.3 793.79L1393.66 793.79C1393.66 789.91 1393.66 787.75 1393.66 787.31C1386.91 785.06 1383.16 783.81 1382.41 783.56C1380.42 782.9 1379.08 781.04 1379.08 778.95C1379.08 774.21 1379.08 750.54 1379.08 707.93C1385.56 707.93 1389.16 707.93 1389.88 707.93C1393.01 707.93 1395.7 710.16 1396.26 713.25C1396.41 714.08 1397.16 718.25 1398.52 725.75C1398.96 725.75 1401.12 725.75 1405.01 725.75L1405.01 699.83L1336.96 699.83L1336.96 725.75C1340.85 725.75 1343.01 725.75 1343.44 725.75Z" id="b13KhcXvsy"></path><path d="M1343.44 725.75C1344.8 718.25 1345.56 714.08 1345.71 713.25C1346.27 710.16 1348.96 707.93 1352.09 707.93C1352.81 707.93 1356.41 707.93 1362.88 707.93C1362.88 750.54 1362.88 774.21 1362.88 778.95C1362.88 781.04 1361.54 782.9 1359.56 783.56C1358.81 783.81 1355.06 785.06 1348.3 787.31C1348.3 787.75 1348.3 789.91 1348.3 793.79L1393.66 793.79C1393.66 789.91 1393.66 787.75 1393.66 787.31C1386.91 785.06 1383.16 783.81 1382.41 783.56C1380.42 782.9 1379.08 781.04 1379.08 778.95C1379.08 774.21 1379.08 750.54 1379.08 707.93C1385.56 707.93 1389.16 707.93 1389.88 707.93C1393.01 707.93 1395.7 710.16 1396.26 713.25C1396.41 714.08 1397.16 718.25 1398.52 725.75C1398.96 725.75 1401.12 725.75 1405.01 725.75L1405.01 699.83L1336.96 699.83L1336.96 725.75C1340.85 725.75 1343.01 725.75 1343.44 725.75Z" id="a2aKcHDaT"></path><path d="M1421.21 699.83L1411.49 719.27L1417.97 719.27L1417.97 774.35L1411.49 774.35L1421.21 793.79L1430.93 774.35L1424.45 774.35L1424.45 719.27L1430.93 719.27L1421.21 699.83Z" id="a57wLqgxXn"></path><path d="M1421.21 699.83L1411.49 719.27L1417.97 719.27L1417.97 774.35L1411.49 774.35L1421.21 793.79L1430.93 774.35L1424.45 774.35L1424.45 719.27L1430.93 719.27L1421.21 699.83Z" id="ei5err1aQ"></path><path d="M1348.3 787.31C1348.3 787.75 1348.3 789.91 1348.3 793.79L1393.66 793.79C1393.66 789.91 1393.66 787.75 1393.66 787.31C1386.91 785.06 1383.16 783.81 1382.41 783.56C1380.42 782.9 1379.08 781.04 1379.08 778.95C1379.08 776.32 1379.08 763.18 1379.08 739.52C1378 740.6 1372.6 746 1362.88 755.72C1362.88 769.66 1362.88 777.4 1362.88 778.95C1361.99 781.58 1360.88 783.12 1359.56 783.56C1358.81 783.81 1355.06 785.06 1348.3 787.31Z" id="g5sCVZ9p8"></path><path d="M1348.3 787.31C1348.3 787.75 1348.3 789.91 1348.3 793.79L1393.66 793.79C1393.66 789.91 1393.66 787.75 1393.66 787.31C1386.91 785.06 1383.16 783.81 1382.41 783.56C1380.42 782.9 1379.08 781.04 1379.08 778.95C1379.08 776.32 1379.08 763.18 1379.08 739.52C1378 740.6 1372.6 746 1362.88 755.72C1362.88 769.66 1362.88 777.4 1362.88 778.95C1361.99 781.58 1360.88 783.12 1359.56 783.56C1358.81 783.81 1355.06 785.06 1348.3 787.31Z" id="b13tur1DS7"></path><path d="M1417.97 774.35L1411.49 774.35L1421.21 793.79L1430.93 774.35L1424.45 774.35L1424.45 745.19L1417.97 751.67L1417.97 774.35Z" id="aZZeIOta9"></path><path d="M1417.97 774.35L1411.49 774.35L1421.21 793.79L1430.93 774.35L1424.45 774.35L1424.45 745.19L1417.97 751.67L1417.97 774.35Z" id="avUF5B4xx"></path><path d="M847.66 161.7C807.98 161.7 775.91 129.62 775.91 89.93C775.91 50.26 807.98 18.18 847.66 18.18C887.35 18.18 919.42 50.26 919.42 89.93C919.42 129.62 887.35 161.7 847.66 161.7Z" id="fuf2xrBsa"></path><path d="M894.01 49.39C894.01 54.6 894.01 96.31 894.01 101.53C894.01 103.93 892.07 105.87 889.67 105.87C883.3 105.87 832.31 105.87 825.94 105.87C823.54 105.87 821.59 103.93 821.59 101.53C821.59 96.31 821.59 54.6 821.59 49.39C821.59 46.98 823.54 45.04 825.94 45.04C838.68 45.04 883.3 45.04 889.67 45.04C892.07 45.04 894.01 46.98 894.01 49.39Z" id="a28IyG9Ohk"></path><path d="M894.01 49.39C894.01 54.6 894.01 96.31 894.01 101.53C894.01 103.93 892.07 105.87 889.67 105.87C883.3 105.87 832.31 105.87 825.94 105.87C823.54 105.87 821.59 103.93 821.59 101.53C821.59 96.31 821.59 54.6 821.59 49.39C821.59 46.98 823.54 45.04 825.94 45.04C838.68 45.04 883.3 45.04 889.67 45.04C892.07 45.04 894.01 46.98 894.01 49.39Z" id="bnl8bpZHa"></path><path d="M825.07 105.78C825.35 105.84 825.65 105.87 825.94 105.87C832.31 105.87 883.3 105.87 889.67 105.87C892.07 105.87 894.01 103.93 894.01 101.53C894.01 96.31 894.01 54.6 894.01 49.39C894.01 46.98 892.07 45.04 889.67 45.04C889.15 45.04 887.87 45.04 885.81 45.04C849.36 81.49 829.12 101.74 825.07 105.78Z" id="a2WSnX9MJ8"></path><path d="M825.07 105.78C825.35 105.84 825.65 105.87 825.94 105.87C832.31 105.87 883.3 105.87 889.67 105.87C892.07 105.87 894.01 103.93 894.01 101.53C894.01 96.31 894.01 54.6 894.01 49.39C894.01 46.98 892.07 45.04 889.67 45.04C889.15 45.04 887.87 45.04 885.81 45.04C849.36 81.49 829.12 101.74 825.07 105.78Z" id="dW8WQhnl4"></path><path d="M889.67 84.15C889.67 85.89 889.67 86.85 889.67 87.04C889.67 87.04 889.67 87.04 889.67 87.04C881.85 87.04 877.5 87.04 876.63 87.04C876.63 87.04 876.63 87.04 876.63 87.04C876.63 85.31 876.63 84.34 876.63 84.15C876.63 84.15 876.63 84.15 876.63 84.15C884.45 84.15 888.8 84.15 889.67 84.15C889.67 84.15 889.67 84.15 889.67 84.15Z" id="g3dGHDtngq"></path><path d="M889.67 84.15C889.67 85.89 889.67 86.85 889.67 87.04C889.67 87.04 889.67 87.04 889.67 87.04C881.85 87.04 877.5 87.04 876.63 87.04C876.63 87.04 876.63 87.04 876.63 87.04C876.63 85.31 876.63 84.34 876.63 84.15C876.63 84.15 876.63 84.15 876.63 84.15C884.45 84.15 888.8 84.15 889.67 84.15C889.67 84.15 889.67 84.15 889.67 84.15Z" id="c5Rqj4gSsE"></path><path d="M889.67 91.39C889.67 93.13 889.67 94.09 889.67 94.29C889.67 94.29 889.67 94.29 889.67 94.29C872.29 94.29 862.63 94.29 860.7 94.29C860.7 94.29 860.7 94.29 860.7 94.29C860.7 92.55 860.7 91.58 860.7 91.39C860.7 91.39 860.7 91.39 860.7 91.39C878.08 91.39 887.74 91.39 889.67 91.39C889.67 91.39 889.67 91.39 889.67 91.39Z" id="ateQWGIRD"></path><path d="M889.67 91.39C889.67 93.13 889.67 94.09 889.67 94.29C889.67 94.29 889.67 94.29 889.67 94.29C872.29 94.29 862.63 94.29 860.7 94.29C860.7 94.29 860.7 94.29 860.7 94.29C860.7 92.55 860.7 91.58 860.7 91.39C860.7 91.39 860.7 91.39 860.7 91.39C878.08 91.39 887.74 91.39 889.67 91.39C889.67 91.39 889.67 91.39 889.67 91.39Z" id="b80W6hfv1r"></path><path d="M883.88 69.66C883.88 71.4 883.88 72.37 883.88 72.56C883.88 72.56 883.88 72.56 883.88 72.56C874.32 72.56 869 72.56 867.94 72.56C867.94 72.56 867.94 72.56 867.94 72.56C867.94 70.82 867.94 69.86 867.94 69.66C867.94 69.66 867.94 69.66 867.94 69.66C877.5 69.66 882.81 69.66 883.88 69.66C883.88 69.66 883.88 69.66 883.88 69.66Z" id="gIAUrOIX5"></path><path d="M883.88 69.66C883.88 71.4 883.88 72.37 883.88 72.56C883.88 72.56 883.88 72.56 883.88 72.56C874.32 72.56 869 72.56 867.94 72.56C867.94 72.56 867.94 72.56 867.94 72.56C867.94 70.82 867.94 69.86 867.94 69.66C867.94 69.66 867.94 69.66 867.94 69.66C877.5 69.66 882.81 69.66 883.88 69.66C883.88 69.66 883.88 69.66 883.88 69.66Z" id="kyBaJPD"></path><path d="M889.67 69.66C889.67 71.4 889.67 72.37 889.67 72.56C889.67 72.56 889.67 72.56 889.67 72.56C887.93 72.56 886.97 72.56 886.77 72.56C886.77 72.56 886.77 72.56 886.77 72.56C886.77 70.82 886.77 69.86 886.77 69.66C886.77 69.66 886.77 69.66 886.77 69.66C888.51 69.66 889.48 69.66 889.67 69.66C889.67 69.66 889.67 69.66 889.67 69.66Z" id="l4sXtSaga"></path><path d="M889.67 69.66C889.67 71.4 889.67 72.37 889.67 72.56C889.67 72.56 889.67 72.56 889.67 72.56C887.93 72.56 886.97 72.56 886.77 72.56C886.77 72.56 886.77 72.56 886.77 72.56C886.77 70.82 886.77 69.86 886.77 69.66C886.77 69.66 886.77 69.66 886.77 69.66C888.51 69.66 889.48 69.66 889.67 69.66C889.67 69.66 889.67 69.66 889.67 69.66Z" id="e9g9XWX12"></path><path d="M889.67 76.91C889.67 78.64 889.67 79.61 889.67 79.8C889.67 79.8 889.67 79.8 889.67 79.8C876.63 79.8 869.39 79.8 867.94 79.8C867.94 79.8 867.94 79.8 867.94 79.8C867.94 78.06 867.94 77.1 867.94 76.91C867.94 76.91 867.94 76.91 867.94 76.91C880.98 76.91 888.22 76.91 889.67 76.91C889.67 76.91 889.67 76.91 889.67 76.91Z" id="a3FgIZZWe9"></path><path d="M889.67 76.91C889.67 78.64 889.67 79.61 889.67 79.8C889.67 79.8 889.67 79.8 889.67 79.8C876.63 79.8 869.39 79.8 867.94 79.8C867.94 79.8 867.94 79.8 867.94 79.8C867.94 78.06 867.94 77.1 867.94 76.91C867.94 76.91 867.94 76.91 867.94 76.91C880.98 76.91 888.22 76.91 889.67 76.91C889.67 76.91 889.67 76.91 889.67 76.91Z" id="cxwGO0sxQ"></path><path d="M873.74 84.15C873.74 85.89 873.74 86.85 873.74 87.04C873.74 87.04 873.74 87.04 873.74 87.04C866.78 87.04 862.92 87.04 862.15 87.04C862.15 87.04 862.15 87.04 862.15 87.04C862.15 85.31 862.15 84.34 862.15 84.15C862.15 84.15 862.15 84.15 862.15 84.15C869.1 84.15 872.96 84.15 873.74 84.15C873.74 84.15 873.74 84.15 873.74 84.15Z" id="brdja6s1P"></path><path d="M873.74 84.15C873.74 85.89 873.74 86.85 873.74 87.04C873.74 87.04 873.74 87.04 873.74 87.04C866.78 87.04 862.92 87.04 862.15 87.04C862.15 87.04 862.15 87.04 862.15 87.04C862.15 85.31 862.15 84.34 862.15 84.15C862.15 84.15 862.15 84.15 862.15 84.15C869.1 84.15 872.96 84.15 873.74 84.15C873.74 84.15 873.74 84.15 873.74 84.15Z" id="b104l3VGEE"></path><path d="M889.67 98.63C889.67 100.37 889.67 101.33 889.67 101.53C889.67 101.53 889.67 101.53 889.67 101.53C881.85 101.53 877.5 101.53 876.63 101.53C876.63 101.53 876.63 101.53 876.63 101.53C876.63 99.79 876.63 98.82 876.63 98.63C876.63 98.63 876.63 98.63 876.63 98.63C884.45 98.63 888.8 98.63 889.67 98.63C889.67 98.63 889.67 98.63 889.67 98.63Z" id="b28OM0wPiS"></path><path d="M889.67 98.63C889.67 100.37 889.67 101.33 889.67 101.53C889.67 101.53 889.67 101.53 889.67 101.53C881.85 101.53 877.5 101.53 876.63 101.53C876.63 101.53 876.63 101.53 876.63 101.53C876.63 99.79 876.63 98.82 876.63 98.63C876.63 98.63 876.63 98.63 876.63 98.63C884.45 98.63 888.8 98.63 889.67 98.63C889.67 98.63 889.67 98.63 889.67 98.63Z" id="a1f5n9pd0w"></path><path d="M873.74 98.63C873.74 100.37 873.74 101.33 873.74 101.53C873.74 101.53 873.74 101.53 873.74 101.53C866.78 101.53 862.92 101.53 862.15 101.53C862.15 101.53 862.15 101.53 862.15 101.53C862.15 99.79 862.15 98.82 862.15 98.63C862.15 98.63 862.15 98.63 862.15 98.63C869.1 98.63 872.96 98.63 873.74 98.63C873.74 98.63 873.74 98.63 873.74 98.63Z" id="eFwPRcV9E"></path><path d="M873.74 98.63C873.74 100.37 873.74 101.33 873.74 101.53C873.74 101.53 873.74 101.53 873.74 101.53C866.78 101.53 862.92 101.53 862.15 101.53C862.15 101.53 862.15 101.53 862.15 101.53C862.15 99.79 862.15 98.82 862.15 98.63C862.15 98.63 862.15 98.63 862.15 98.63C869.1 98.63 872.96 98.63 873.74 98.63C873.74 98.63 873.74 98.63 873.74 98.63Z" id="b1YSJZJjId"></path><path d="M862.15 111.67L862.15 129.05C862.15 129.05 862.15 129.05 862.15 129.05C836.08 129.05 821.59 129.05 818.7 129.05C813.9 129.05 810.01 125.16 810.01 120.36C810.01 120.36 810.01 120.36 810.01 120.36C810.01 120.36 810.01 120.36 810.01 120.36C810.01 115.56 813.9 111.67 818.7 111.67C824.49 111.67 838.97 111.67 862.15 111.67C862.15 111.67 862.15 111.67 862.15 111.67Z" id="auXSe3El7"></path><path d="M862.15 111.67L862.15 129.05C862.15 129.05 862.15 129.05 862.15 129.05C836.08 129.05 821.59 129.05 818.7 129.05C813.9 129.05 810.01 125.16 810.01 120.36C810.01 120.36 810.01 120.36 810.01 120.36C810.01 120.36 810.01 120.36 810.01 120.36C810.01 115.56 813.9 111.67 818.7 111.67C824.49 111.67 838.97 111.67 862.15 111.67C862.15 111.67 862.15 111.67 862.15 111.67Z" id="aW1Kq5SSK"></path><path d="M818.7 129.05C819.18 129.05 821.59 129.05 825.94 129.05C827.1 127.89 832.89 122.1 843.32 111.67C828.55 111.67 820.34 111.67 818.7 111.67C812.9 114.26 810.01 117.16 810.01 120.36C810.01 125.16 813.9 129.05 818.7 129.05Z" id="a4TO5z8QP"></path><path d="M818.7 129.05C819.18 129.05 821.59 129.05 825.94 129.05C827.1 127.89 832.89 122.1 843.32 111.67C828.55 111.67 820.34 111.67 818.7 111.67C812.9 114.26 810.01 117.16 810.01 120.36C810.01 125.16 813.9 129.05 818.7 129.05Z" id="a3YhUkloK"></path><path d="M843.28 83.49L855.56 95.78C855.56 95.78 855.56 95.78 855.56 95.78C837.13 114.21 826.89 124.45 824.84 126.5C821.45 129.9 815.94 129.9 812.55 126.5C812.55 126.5 812.55 126.5 812.55 126.5C809.16 123.11 809.16 117.61 812.55 114.21C816.65 110.12 826.89 99.88 843.28 83.49C843.28 83.49 843.28 83.49 843.28 83.49Z" id="cW59Nm2Zn"></path><path d="M843.28 83.49L855.56 95.78C855.56 95.78 855.56 95.78 855.56 95.78C837.13 114.21 826.89 124.45 824.84 126.5C821.45 129.9 815.94 129.9 812.55 126.5C812.55 126.5 812.55 126.5 812.55 126.5C809.16 123.11 809.16 117.61 812.55 114.21C816.65 110.12 826.89 99.88 843.28 83.49C843.28 83.49 843.28 83.49 843.28 83.49Z" id="a2y9OSoSpq"></path><path d="M812.55 126.5C815.94 129.9 821.45 129.9 824.84 126.5C825.21 126.14 827.02 124.33 830.28 121.06C830.28 118.6 830.28 98.94 830.28 96.48C819.64 107.12 813.73 113.03 812.55 114.21C809.16 117.61 809.16 123.11 812.55 126.5Z" id="aJjDDwuf"></path><path d="M812.55 126.5C815.94 129.9 821.45 129.9 824.84 126.5C825.21 126.14 827.02 124.33 830.28 121.06C830.28 118.6 830.28 98.94 830.28 96.48C819.64 107.12 813.73 113.03 812.55 114.21C809.16 117.61 809.16 123.11 812.55 126.5Z" id="b3PT6a2lA"></path><path d="M842.97 89.94C846.65 93.63 848.7 95.68 849.11 96.09C849.11 96.09 849.11 96.09 849.11 96.09C845.43 99.77 843.38 101.82 842.97 102.23C842.97 102.23 842.97 102.23 842.97 102.23C839.28 98.54 837.23 96.5 836.82 96.09C836.82 96.09 836.82 96.09 836.82 96.09C840.51 92.4 842.56 90.35 842.97 89.94C842.97 89.94 842.97 89.94 842.97 89.94Z" id="crmUBknq8"></path><path d="M842.97 89.94C846.65 93.63 848.7 95.68 849.11 96.09C849.11 96.09 849.11 96.09 849.11 96.09C845.43 99.77 843.38 101.82 842.97 102.23C842.97 102.23 842.97 102.23 842.97 102.23C839.28 98.54 837.23 96.5 836.82 96.09C836.82 96.09 836.82 96.09 836.82 96.09C840.51 92.4 842.56 90.35 842.97 89.94C842.97 89.94 842.97 89.94 842.97 89.94Z" id="a1ExwIo97i"></path><path d="M830.68 102.23C834.36 105.92 836.41 107.97 836.82 108.38C836.82 108.38 836.82 108.38 836.82 108.38C833.13 112.06 831.09 114.11 830.68 114.52C830.68 114.52 830.68 114.52 830.68 114.52C826.99 110.83 824.94 108.79 824.53 108.38C824.53 108.38 824.53 108.38 824.53 108.38C828.22 104.69 830.27 102.64 830.68 102.23C830.68 102.23 830.68 102.23 830.68 102.23Z" id="a3UeyjqdNJ"></path><path d="M830.68 102.23C834.36 105.92 836.41 107.97 836.82 108.38C836.82 108.38 836.82 108.38 836.82 108.38C833.13 112.06 831.09 114.11 830.68 114.52C830.68 114.52 830.68 114.52 830.68 114.52C826.99 110.83 824.94 108.79 824.53 108.38C824.53 108.38 824.53 108.38 824.53 108.38C828.22 104.69 830.27 102.64 830.68 102.23C830.68 102.23 830.68 102.23 830.68 102.23Z" id="d1VsQZDbCO"></path><path d="M810.01 76.91L827.39 76.91C827.39 76.91 827.39 76.91 827.39 76.91C827.39 102.98 827.39 117.46 827.39 120.36C827.39 125.16 823.5 129.05 818.7 129.05C818.7 129.05 818.7 129.05 818.7 129.05C813.9 129.05 810.01 125.16 810.01 120.36C810.01 114.56 810.01 100.08 810.01 76.91C810.01 76.91 810.01 76.91 810.01 76.91Z" id="eiihK7UVX"></path><path d="M810.01 76.91L827.39 76.91C827.39 76.91 827.39 76.91 827.39 76.91C827.39 102.98 827.39 117.46 827.39 120.36C827.39 125.16 823.5 129.05 818.7 129.05C818.7 129.05 818.7 129.05 818.7 129.05C813.9 129.05 810.01 125.16 810.01 120.36C810.01 114.56 810.01 100.08 810.01 76.91C810.01 76.91 810.01 76.91 810.01 76.91Z" id="b1YZtywMXi"></path><path d="M831.73 78.35C831.73 78.2 831.73 77.43 831.73 76.06C830.25 74.57 829.43 73.75 829.26 73.58C828.7 73.02 828.7 72.1 829.26 71.54C829.43 71.37 830.25 70.55 831.73 69.06C831.73 67.69 831.73 66.92 831.73 66.77C831.73 64.37 833.68 62.42 836.08 62.42C836.27 62.42 837.24 62.42 838.97 62.42C838.97 62.71 838.97 65.03 838.97 65.32C837.24 65.32 836.27 65.32 836.08 65.32C835.28 65.32 834.63 65.97 834.63 66.77C834.63 67.06 834.63 69.37 834.63 69.66C834.63 70.05 834.48 70.42 834.2 70.69C834.08 70.81 833.46 71.44 832.33 72.56C833.46 73.68 834.08 74.31 834.2 74.43C834.48 74.7 834.63 75.07 834.63 75.46C834.63 75.75 834.63 78.06 834.63 78.35C834.63 79.15 835.28 79.8 836.08 79.8C836.27 79.8 837.24 79.8 838.97 79.8C838.97 80.09 838.97 82.41 838.97 82.7C837.24 82.7 836.27 82.7 836.08 82.7C833.68 82.7 831.73 80.75 831.73 78.35Z" id="ddizN4seN"></path><path d="M831.73 78.35C831.73 78.2 831.73 77.43 831.73 76.06C830.25 74.57 829.43 73.75 829.26 73.58C828.7 73.02 828.7 72.1 829.26 71.54C829.43 71.37 830.25 70.55 831.73 69.06C831.73 67.69 831.73 66.92 831.73 66.77C831.73 64.37 833.68 62.42 836.08 62.42C836.27 62.42 837.24 62.42 838.97 62.42C838.97 62.71 838.97 65.03 838.97 65.32C837.24 65.32 836.27 65.32 836.08 65.32C835.28 65.32 834.63 65.97 834.63 66.77C834.63 67.06 834.63 69.37 834.63 69.66C834.63 70.05 834.48 70.42 834.2 70.69C834.08 70.81 833.46 71.44 832.33 72.56C833.46 73.68 834.08 74.31 834.2 74.43C834.48 74.7 834.63 75.07 834.63 75.46C834.63 75.75 834.63 78.06 834.63 78.35C834.63 79.15 835.28 79.8 836.08 79.8C836.27 79.8 837.24 79.8 838.97 79.8C838.97 80.09 838.97 82.41 838.97 82.7C837.24 82.7 836.27 82.7 836.08 82.7C833.68 82.7 831.73 80.75 831.73 78.35Z" id="aq0tmye9J"></path><path d="M853.46 79.8C855.2 79.8 856.16 79.8 856.36 79.8C857.16 79.8 857.8 79.15 857.8 78.35C857.8 78.06 857.8 75.75 857.8 75.46C857.8 75.07 857.96 74.7 858.23 74.43C858.35 74.31 858.98 73.68 860.1 72.56C858.98 71.44 858.35 70.81 858.23 70.69C857.96 70.42 857.8 70.05 857.8 69.66C857.8 69.37 857.8 67.06 857.8 66.77C857.8 65.97 857.16 65.32 856.36 65.32C856.16 65.32 855.2 65.32 853.46 65.32C853.46 65.03 853.46 62.71 853.46 62.42C855.2 62.42 856.16 62.42 856.36 62.42C858.76 62.42 860.7 64.37 860.7 66.77C860.7 66.92 860.7 67.69 860.7 69.06C862.18 70.55 863.01 71.37 863.17 71.54C863.74 72.1 863.74 73.02 863.17 73.58C863.01 73.75 862.18 74.57 860.7 76.06C860.7 77.43 860.7 78.2 860.7 78.35C860.7 80.75 858.75 82.7 856.36 82.7C855.97 82.7 855 82.7 853.46 82.7C853.46 82.12 853.46 80.09 853.46 79.8Z" id="lhvaAgqs1"></path><path d="M853.46 79.8C855.2 79.8 856.16 79.8 856.36 79.8C857.16 79.8 857.8 79.15 857.8 78.35C857.8 78.06 857.8 75.75 857.8 75.46C857.8 75.07 857.96 74.7 858.23 74.43C858.35 74.31 858.98 73.68 860.1 72.56C858.98 71.44 858.35 70.81 858.23 70.69C857.96 70.42 857.8 70.05 857.8 69.66C857.8 69.37 857.8 67.06 857.8 66.77C857.8 65.97 857.16 65.32 856.36 65.32C856.16 65.32 855.2 65.32 853.46 65.32C853.46 65.03 853.46 62.71 853.46 62.42C855.2 62.42 856.16 62.42 856.36 62.42C858.76 62.42 860.7 64.37 860.7 66.77C860.7 66.92 860.7 67.69 860.7 69.06C862.18 70.55 863.01 71.37 863.17 71.54C863.74 72.1 863.74 73.02 863.17 73.58C863.01 73.75 862.18 74.57 860.7 76.06C860.7 77.43 860.7 78.2 860.7 78.35C860.7 80.75 858.75 82.7 856.36 82.7C855.97 82.7 855 82.7 853.46 82.7C853.46 82.12 853.46 80.09 853.46 79.8Z" id="alCpwvg35"></path><path d="M841.87 74.01C841.87 75.75 841.87 76.71 841.87 76.91C841.87 76.91 841.87 76.91 841.87 76.91C840.13 76.91 839.17 76.91 838.97 76.91C838.97 76.91 838.97 76.91 838.97 76.91C838.97 75.17 838.97 74.2 838.97 74.01C838.97 74.01 838.97 74.01 838.97 74.01C840.71 74.01 841.68 74.01 841.87 74.01C841.87 74.01 841.87 74.01 841.87 74.01Z" id="d90CmeyFG"></path><path d="M841.87 74.01C841.87 75.75 841.87 76.71 841.87 76.91C841.87 76.91 841.87 76.91 841.87 76.91C840.13 76.91 839.17 76.91 838.97 76.91C838.97 76.91 838.97 76.91 838.97 76.91C838.97 75.17 838.97 74.2 838.97 74.01C838.97 74.01 838.97 74.01 838.97 74.01C840.71 74.01 841.68 74.01 841.87 74.01C841.87 74.01 841.87 74.01 841.87 74.01Z" id="b22WYdfkiL"></path><path d="M847.66 74.01C847.66 75.75 847.66 76.71 847.66 76.91C847.66 76.91 847.66 76.91 847.66 76.91C845.93 76.91 844.96 76.91 844.77 76.91C844.77 76.91 844.77 76.91 844.77 76.91C844.77 75.17 844.77 74.2 844.77 74.01C844.77 74.01 844.77 74.01 844.77 74.01C846.51 74.01 847.47 74.01 847.66 74.01C847.66 74.01 847.66 74.01 847.66 74.01Z" id="ao15kpctz"></path><path d="M847.66 74.01C847.66 75.75 847.66 76.71 847.66 76.91C847.66 76.91 847.66 76.91 847.66 76.91C845.93 76.91 844.96 76.91 844.77 76.91C844.77 76.91 844.77 76.91 844.77 76.91C844.77 75.17 844.77 74.2 844.77 74.01C844.77 74.01 844.77 74.01 844.77 74.01C846.51 74.01 847.47 74.01 847.66 74.01C847.66 74.01 847.66 74.01 847.66 74.01Z" id="f2vfhw9Lns"></path><path d="M853.46 74.01C853.46 75.75 853.46 76.71 853.46 76.91C853.46 76.91 853.46 76.91 853.46 76.91C851.72 76.91 850.75 76.91 850.56 76.91C850.56 76.91 850.56 76.91 850.56 76.91C850.56 75.17 850.56 74.2 850.56 74.01C850.56 74.01 850.56 74.01 850.56 74.01C852.3 74.01 853.27 74.01 853.46 74.01C853.46 74.01 853.46 74.01 853.46 74.01Z" id="arGCOMRWf"></path><path d="M853.46 74.01C853.46 75.75 853.46 76.71 853.46 76.91C853.46 76.91 853.46 76.91 853.46 76.91C851.72 76.91 850.75 76.91 850.56 76.91C850.56 76.91 850.56 76.91 850.56 76.91C850.56 75.17 850.56 74.2 850.56 74.01C850.56 74.01 850.56 74.01 850.56 74.01C852.3 74.01 853.27 74.01 853.46 74.01C853.46 74.01 853.46 74.01 853.46 74.01Z" id="e9beydXgY"></path><path d="M823.04 81.25C823.04 86.46 823.04 89.36 823.04 89.94C823.04 89.94 823.04 89.94 823.04 89.94C817.83 89.94 814.93 89.94 814.35 89.94C814.35 89.94 814.35 89.94 814.35 89.94C814.35 84.73 814.35 81.83 814.35 81.25C814.35 81.25 814.35 81.25 814.35 81.25C819.57 81.25 822.46 81.25 823.04 81.25C823.04 81.25 823.04 81.25 823.04 81.25Z" id="alNMAKzCh"></path><path d="M823.04 81.25C823.04 86.46 823.04 89.36 823.04 89.94C823.04 89.94 823.04 89.94 823.04 89.94C817.83 89.94 814.93 89.94 814.35 89.94C814.35 89.94 814.35 89.94 814.35 89.94C814.35 84.73 814.35 81.83 814.35 81.25C814.35 81.25 814.35 81.25 814.35 81.25C819.57 81.25 822.46 81.25 823.04 81.25C823.04 81.25 823.04 81.25 823.04 81.25Z" id="cSfkA9hNc"></path><path d="M823.04 98.63C823.04 103.85 823.04 106.74 823.04 107.32C823.04 107.32 823.04 107.32 823.04 107.32C817.83 107.32 814.93 107.32 814.35 107.32C814.35 107.32 814.35 107.32 814.35 107.32C814.35 102.11 814.35 99.21 814.35 98.63C814.35 98.63 814.35 98.63 814.35 98.63C819.57 98.63 822.46 98.63 823.04 98.63C823.04 98.63 823.04 98.63 823.04 98.63Z" id="b5A2GJKJdP"></path><path d="M823.04 98.63C823.04 103.85 823.04 106.74 823.04 107.32C823.04 107.32 823.04 107.32 823.04 107.32C817.83 107.32 814.93 107.32 814.35 107.32C814.35 107.32 814.35 107.32 814.35 107.32C814.35 102.11 814.35 99.21 814.35 98.63C814.35 98.63 814.35 98.63 814.35 98.63C819.57 98.63 822.46 98.63 823.04 98.63C823.04 98.63 823.04 98.63 823.04 98.63Z" id="aSHt5B3yQ"></path></defs><g><g><g><use xlink:href="#a3EkMDSEV" opacity="1" fill="#ffffff" fill-opacity="1"></use><g><use xlink:href="#a3EkMDSEV" opacity="1" fill-opacity="0" stroke="#000000" stroke-width="1" stroke-opacity="0"></use></g></g><g><use xlink:href="#b2p7pxbtTK" opacity="1" fill="#000000" fill-opacity="0"></use><g><use xlink:href="#b2p7pxbtTK" opacity="1" fill-opacity="0" stroke="#000000" stroke-width="1" stroke-opacity="0"></use></g></g><g><use xlink:href="#cUXbxhVnq" opacity="1" fill="#cffefd" fill-opacity="1"></use><g><use xlink:href="#cUXbxhVnq" opacity="1" fill-opacity="0" stroke="#000000" stroke-width="1" stroke-opacity="0"></use></g></g><g><use xlink:href="#a1XvWOjBGw" opacity="1" fill="#000000" fill-opacity="0"></use><g><use xlink:href="#a1XvWOjBGw" opacity="1" fill-opacity="0" stroke="#000000" stroke-width="1" stroke-opacity="0"></use></g></g><g><use xlink:href="#d47A6bpa" opacity="1" fill="#48cfff" fill-opacity="1"></use><g><use xlink:href="#d47A6bpa" opacity="1" fill-opacity="0" stroke="#000000" stroke-width="1" stroke-opacity="0"></use></g></g><g><use xlink:href="#aJvC59brE" opacity="1" fill="#000000" fill-opacity="0"></use><g><use xlink:href="#aJvC59brE" opacity="1" fill-opacity="0" stroke="#000000" stroke-width="1" stroke-opacity="0"></use></g></g><g><use xlink:href="#a18XD5HNEu" opacity="1" fill="#48cfff" fill-opacity="1"></use><g><use xlink:href="#a18XD5HNEu" opacity="1" fill-opacity="0" stroke="#000000" stroke-width="1" stroke-opacity="0"></use></g></g><g><use xlink:href="#d2qhlimv5J" opacity="1" fill="#000000" fill-opacity="0"></use><g><use xlink:href="#d2qhlimv5J" opacity="1" fill-opacity="0" stroke="#000000" stroke-width="1" stroke-opacity="0"></use></g></g><g><use xlink:href="#k35LIrGUhX" opacity="1" fill="#11baf6" fill-opacity="1"></use><g><use xlink:href="#k35LIrGUhX" opacity="1" fill-opacity="0" stroke="#000000" stroke-width="1" stroke-opacity="0"></use></g></g><g><use xlink:href="#aexoHXKTB" opacity="1" fill="#000000" fill-opacity="0"></use><g><use xlink:href="#aexoHXKTB" opacity="1" fill-opacity="0" stroke="#000000" stroke-width="1" stroke-opacity="0"></use></g></g><g><use xlink:href="#g2lW1mxzgJ" opacity="1" fill="#11baf6" fill-opacity="1"></use><g><use xlink:href="#g2lW1mxzgJ" opacity="1" fill-opacity="0" stroke="#000000" stroke-width="1" stroke-opacity="0"></use></g></g><g><use xlink:href="#b2pBUuZQS9" opacity="1" fill="#000000" fill-opacity="0"></use><g><use xlink:href="#b2pBUuZQS9" opacity="1" fill-opacity="0" stroke="#000000" stroke-width="1" stroke-opacity="0"></use></g></g><g><use xlink:href="#a8slUgFth" opacity="1" fill="#11baf6" fill-opacity="1"></use><g><use xlink:href="#a8slUgFth" opacity="1" fill-opacity="0" stroke="#000000" stroke-width="1" stroke-opacity="0"></use></g></g><g><use xlink:href="#c6HphKbvt" opacity="1" fill="#000000" fill-opacity="0"></use><g><use xlink:href="#c6HphKbvt" opacity="1" fill-opacity="0" stroke="#000000" stroke-width="1" stroke-opacity="0"></use></g></g><g><use xlink:href="#a12xvTSYTt" opacity="1" fill="#4398d1" fill-opacity="1"></use><g><use xlink:href="#a12xvTSYTt" opacity="1" fill-opacity="0" stroke="#000000" stroke-width="1" stroke-opacity="0"></use></g></g><g><use xlink:href="#i98lDfmF7" opacity="1" fill="#000000" fill-opacity="0"></use><g><use xlink:href="#i98lDfmF7" opacity="1" fill-opacity="0" stroke="#000000" stroke-width="1" stroke-opacity="0"></use></g></g><g><use xlink:href="#b26yOIBGg" opacity="1" fill="#3269a1" fill-opacity="1"></use><g><use xlink:href="#b26yOIBGg" opacity="1" fill-opacity="0" stroke="#000000" stroke-width="1" stroke-opacity="0"></use></g></g><g><use xlink:href="#a60aLSKTR9" opacity="1" fill="#000000" fill-opacity="0"></use><g><use xlink:href="#a60aLSKTR9" opacity="1" fill-opacity="0" stroke="#000000" stroke-width="1" stroke-opacity="0"></use></g></g><g><use xlink:href="#a40LBjIrh7" opacity="1" fill="#0e5280" fill-opacity="1"></use><g><use xlink:href="#a40LBjIrh7" opacity="1" fill-opacity="0" stroke="#000000" stroke-width="1" stroke-opacity="0"></use></g></g><g><use xlink:href="#adcAtZeWC" opacity="1" fill="#000000" fill-opacity="0"></use><g><use xlink:href="#adcAtZeWC" opacity="1" fill-opacity="0" stroke="#000000" stroke-width="1" stroke-opacity="0"></use></g></g><g><use xlink:href="#c3t5YWW6F" opacity="1" fill="#0e5280" fill-opacity="1"></use><g><use xlink:href="#c3t5YWW6F" opacity="1" fill-opacity="0" stroke="#000000" stroke-width="1" stroke-opacity="0"></use></g></g><g><use xlink:href="#f5THGsvwCM" opacity="1" fill="#000000" fill-opacity="0"></use><g><use xlink:href="#f5THGsvwCM" opacity="1" fill-opacity="0" stroke="#000000" stroke-width="1" stroke-opacity="0"></use></g></g><g><use xlink:href="#bTkcaDji1" opacity="1" fill="#4398d1" fill-opacity="1"></use><g><use xlink:href="#bTkcaDji1" opacity="1" fill-opacity="0" stroke="#000000" stroke-width="1" stroke-opacity="0"></use></g></g><g><use xlink:href="#e3iuGuIHyX" opacity="1" fill="#000000" fill-opacity="0"></use><g><use xlink:href="#e3iuGuIHyX" opacity="1" fill-opacity="0" stroke="#000000" stroke-width="1" stroke-opacity="0"></use></g></g><g><use xlink:href="#i6TdTbvPDX" opacity="1" fill="#4398d1" fill-opacity="1"></use><g><use xlink:href="#i6TdTbvPDX" opacity="1" fill-opacity="0" stroke="#000000" stroke-width="1" stroke-opacity="0"></use></g></g><g><use xlink:href="#a21qBAMw6a" opacity="1" fill="#000000" fill-opacity="0"></use><g><use xlink:href="#a21qBAMw6a" opacity="1" fill-opacity="0" stroke="#000000" stroke-width="1" stroke-opacity="0"></use></g></g><g><use xlink:href="#b1aI0a8OvQ" opacity="1" fill="#4398d1" fill-opacity="1"></use><g><use xlink:href="#b1aI0a8OvQ" opacity="1" fill-opacity="0" stroke="#000000" stroke-width="1" stroke-opacity="0"></use></g></g><g><use xlink:href="#jH9QOXaHx" opacity="1" fill="#000000" fill-opacity="0"></use><g><use xlink:href="#jH9QOXaHx" opacity="1" fill-opacity="0" stroke="#000000" stroke-width="1" stroke-opacity="0"></use></g></g><g><use xlink:href="#b1YS1X3dcl" opacity="1" fill="#4398d1" fill-opacity="1"></use><g><use xlink:href="#b1YS1X3dcl" opacity="1" fill-opacity="0" stroke="#000000" stroke-width="1" stroke-opacity="0"></use></g></g><g><use xlink:href="#a1RQNEWuc" opacity="1" fill="#000000" fill-opacity="0"></use><g><use xlink:href="#a1RQNEWuc" opacity="1" fill-opacity="0" stroke="#000000" stroke-width="1" stroke-opacity="0"></use></g></g><g><use xlink:href="#e2CEA6B6kS" opacity="1" fill="#4398d1" fill-opacity="1"></use><g><use xlink:href="#e2CEA6B6kS" opacity="1" fill-opacity="0" stroke="#000000" stroke-width="1" stroke-opacity="0"></use></g></g><g><use xlink:href="#c41fnBbtx" opacity="1" fill="#000000" fill-opacity="0"></use><g><use xlink:href="#c41fnBbtx" opacity="1" fill-opacity="0" stroke="#000000" stroke-width="1" stroke-opacity="0"></use></g></g><g><use xlink:href="#b84tbyrAXf" opacity="1" fill="#5eb3d1" fill-opacity="1"></use><g><use xlink:href="#b84tbyrAXf" opacity="1" fill-opacity="0" stroke="#000000" stroke-width="1" stroke-opacity="0"></use></g></g><g><use xlink:href="#b9UQ9OlkV1" opacity="1" fill="#000000" fill-opacity="0"></use><g><use xlink:href="#b9UQ9OlkV1" opacity="1" fill-opacity="0" stroke="#000000" stroke-width="1" stroke-opacity="0"></use></g></g><g><use xlink:href="#hd4q3x85Z" opacity="1" fill="#5eb3d1" fill-opacity="1"></use><g><use xlink:href="#hd4q3x85Z" opacity="1" fill-opacity="0" stroke="#000000" stroke-width="1" stroke-opacity="0"></use></g></g><g><use xlink:href="#d3FpV4Bggm" opacity="1" fill="#000000" fill-opacity="0"></use><g><use xlink:href="#d3FpV4Bggm" opacity="1" fill-opacity="0" stroke="#000000" stroke-width="1" stroke-opacity="0"></use></g></g><g><use xlink:href="#d1U6g6Dnm" opacity="1" fill="#5eb3d1" fill-opacity="1"></use><g><use xlink:href="#d1U6g6Dnm" opacity="1" fill-opacity="0" stroke="#000000" stroke-width="1" stroke-opacity="0"></use></g></g><g><use xlink:href="#aNZ3f6mE0" opacity="1" fill="#000000" fill-opacity="0"></use><g><use xlink:href="#aNZ3f6mE0" opacity="1" fill-opacity="0" stroke="#000000" stroke-width="1" stroke-opacity="0"></use></g></g><g><use xlink:href="#c5aMKD9W6" opacity="1" fill="#5eb3d1" fill-opacity="1"></use><g><use xlink:href="#c5aMKD9W6" opacity="1" fill-opacity="0" stroke="#000000" stroke-width="1" stroke-opacity="0"></use></g></g><g><use xlink:href="#b4zVpSGqYl" opacity="1" fill="#000000" fill-opacity="0"></use><g><use xlink:href="#b4zVpSGqYl" opacity="1" fill-opacity="0" stroke="#000000" stroke-width="1" stroke-opacity="0"></use></g></g><g><use xlink:href="#a2B9mQPLjO" opacity="1" fill="#0e5280" fill-opacity="1"></use><g><use xlink:href="#a2B9mQPLjO" opacity="1" fill-opacity="0" stroke="#000000" stroke-width="1" stroke-opacity="0"></use></g></g><g><use xlink:href="#b32UwJVfE1" opacity="1" fill="#000000" fill-opacity="0"></use><g><use xlink:href="#b32UwJVfE1" opacity="1" fill-opacity="0" stroke="#000000" stroke-width="1" stroke-opacity="0"></use></g></g><g><use xlink:href="#d3ywDvzr5g" opacity="1" fill="#4398d1" fill-opacity="1"></use><g><use xlink:href="#d3ywDvzr5g" opacity="1" fill-opacity="0" stroke="#000000" stroke-width="1" stroke-opacity="0"></use></g></g><g><use xlink:href="#f3ncVK3q1s" opacity="1" fill="#000000" fill-opacity="0"></use><g><use xlink:href="#f3ncVK3q1s" opacity="1" fill-opacity="0" stroke="#000000" stroke-width="1" stroke-opacity="0"></use></g></g><g><use xlink:href="#a1u3pmJSN" opacity="1" fill="#4398d1" fill-opacity="1"></use><g><use xlink:href="#a1u3pmJSN" opacity="1" fill-opacity="0" stroke="#000000" stroke-width="1" stroke-opacity="0"></use></g></g><g><use xlink:href="#b2j4f2cgZn" opacity="1" fill="#000000" fill-opacity="0"></use><g><use xlink:href="#b2j4f2cgZn" opacity="1" fill-opacity="0" stroke="#000000" stroke-width="1" stroke-opacity="0"></use></g></g><g><use xlink:href="#a3a6pQRVwW" opacity="1" fill="#4398d1" fill-opacity="1"></use><g><use xlink:href="#a3a6pQRVwW" opacity="1" fill-opacity="0" stroke="#000000" stroke-width="1" stroke-opacity="0"></use></g></g><g><use xlink:href="#h9uZAmJ0g" opacity="1" fill="#000000" fill-opacity="0"></use><g><use xlink:href="#h9uZAmJ0g" opacity="1" fill-opacity="0" stroke="#000000" stroke-width="1" stroke-opacity="0"></use></g></g><g><use xlink:href="#awZWaWqJ" opacity="1" fill="#4398d1" fill-opacity="1"></use><g><use xlink:href="#awZWaWqJ" opacity="1" fill-opacity="0" stroke="#000000" stroke-width="1" stroke-opacity="0"></use></g></g><g><use xlink:href="#b17z8ncD0Q" opacity="1" fill="#000000" fill-opacity="0"></use><g><use xlink:href="#b17z8ncD0Q" opacity="1" fill-opacity="0" stroke="#000000" stroke-width="1" stroke-opacity="0"></use></g></g><g><use xlink:href="#a3g1yNeBFl" opacity="1" fill="#71c4d1" fill-opacity="1"></use><g><use xlink:href="#a3g1yNeBFl" opacity="1" fill-opacity="0" stroke="#000000" stroke-width="1" stroke-opacity="0"></use></g></g><g><use xlink:href="#b46wVSSDbB" opacity="1" fill="#000000" fill-opacity="0"></use><g><use xlink:href="#b46wVSSDbB" opacity="1" fill-opacity="0" stroke="#000000" stroke-width="1" stroke-opacity="0"></use></g></g><g><use xlink:href="#a36FMum6wr" opacity="1" fill="#71c4d1" fill-opacity="1"></use><g><use xlink:href="#a36FMum6wr" opacity="1" fill-opacity="0" stroke="#000000" stroke-width="1" stroke-opacity="0"></use></g></g><g><use xlink:href="#a1GlWmJO3X" opacity="1" fill="#000000" fill-opacity="0"></use><g><use xlink:href="#a1GlWmJO3X" opacity="1" fill-opacity="0" stroke="#000000" stroke-width="1" stroke-opacity="0"></use></g></g><g><use xlink:href="#b2ZlvL2hWz" opacity="1" fill="#71c4d1" fill-opacity="1"></use><g><use xlink:href="#b2ZlvL2hWz" opacity="1" fill-opacity="0" stroke="#000000" stroke-width="1" stroke-opacity="0"></use></g></g><g><use xlink:href="#e1C35sR7Qx" opacity="1" fill="#000000" fill-opacity="0"></use><g><use xlink:href="#e1C35sR7Qx" opacity="1" fill-opacity="0" stroke="#000000" stroke-width="1" stroke-opacity="0"></use></g></g><g><use xlink:href="#f3Uv82KRez" opacity="1" fill="#71c4d1" fill-opacity="1"></use><g><use xlink:href="#f3Uv82KRez" opacity="1" fill-opacity="0" stroke="#000000" stroke-width="1" stroke-opacity="0"></use></g></g><g><use xlink:href="#h4recjF1gT" opacity="1" fill="#000000" fill-opacity="0"></use><g><use xlink:href="#h4recjF1gT" opacity="1" fill-opacity="0" stroke="#000000" stroke-width="1" stroke-opacity="0"></use></g></g><g><use xlink:href="#a5bRa9e5b" opacity="1" fill="#ffffff" fill-opacity="1"></use><g><use xlink:href="#a5bRa9e5b" opacity="1" fill-opacity="0" stroke="#000000" stroke-width="1" stroke-opacity="0"></use></g></g><g><use xlink:href="#b13KhcXvsy" opacity="1" fill="#0e5280" fill-opacity="1"></use><g><use xlink:href="#b13KhcXvsy" opacity="1" fill-opacity="0" stroke="#000000" stroke-width="1" stroke-opacity="0"></use></g></g><g><use xlink:href="#a2aKcHDaT" opacity="1" fill="#000000" fill-opacity="0"></use><g><use xlink:href="#a2aKcHDaT" opacity="1" fill-opacity="0" stroke="#000000" stroke-width="1" stroke-opacity="0"></use></g></g><g><use xlink:href="#a57wLqgxXn" opacity="1" fill="#87ced9" fill-opacity="1"></use><g><use xlink:href="#a57wLqgxXn" opacity="1" fill-opacity="0" stroke="#000000" stroke-width="1" stroke-opacity="0"></use></g></g><g><use xlink:href="#ei5err1aQ" opacity="1" fill="#000000" fill-opacity="0"></use><g><use xlink:href="#ei5err1aQ" opacity="1" fill-opacity="0" stroke="#000000" stroke-width="1" stroke-opacity="0"></use></g></g><g><use xlink:href="#g5sCVZ9p8" opacity="1" fill="#0e5280" fill-opacity="1"></use><g><use xlink:href="#g5sCVZ9p8" opacity="1" fill-opacity="0" stroke="#000000" stroke-width="1" stroke-opacity="0"></use></g></g><g><use xlink:href="#b13tur1DS7" opacity="1" fill="#000000" fill-opacity="0"></use><g><use xlink:href="#b13tur1DS7" opacity="1" fill-opacity="0" stroke="#000000" stroke-width="1" stroke-opacity="0"></use></g></g><g><use xlink:href="#aZZeIOta9" opacity="1" fill="#71c4d1" fill-opacity="1"></use><g><use xlink:href="#aZZeIOta9" opacity="1" fill-opacity="0" stroke="#000000" stroke-width="1" stroke-opacity="0"></use></g></g><g><use xlink:href="#avUF5B4xx" opacity="1" fill="#000000" fill-opacity="0"></use><g><use xlink:href="#avUF5B4xx" opacity="1" fill-opacity="0" stroke="#000000" stroke-width="1" stroke-opacity="0"></use></g></g><g><use xlink:href="#fuf2xrBsa" opacity="1" fill="#ffffff" fill-opacity="1"></use><g><use xlink:href="#fuf2xrBsa" opacity="1" fill-opacity="0" stroke="#000000" stroke-width="1" stroke-opacity="0"></use></g></g><g><use xlink:href="#a28IyG9Ohk" opacity="1" fill="#cffefd" fill-opacity="1"></use><g><use xlink:href="#a28IyG9Ohk" opacity="1" fill-opacity="0" stroke="#000000" stroke-width="1" stroke-opacity="0"></use></g></g><g><use xlink:href="#bnl8bpZHa" opacity="1" fill="#000000" fill-opacity="0"></use><g><use xlink:href="#bnl8bpZHa" opacity="1" fill-opacity="0" stroke="#000000" stroke-width="1" stroke-opacity="0"></use></g></g><g><use xlink:href="#a2WSnX9MJ8" opacity="1" fill="#cffefd" fill-opacity="1"></use><g><use xlink:href="#a2WSnX9MJ8" opacity="1" fill-opacity="0" stroke="#000000" stroke-width="1" stroke-opacity="0"></use></g></g><g><use xlink:href="#dW8WQhnl4" opacity="1" fill="#000000" fill-opacity="0"></use><g><use xlink:href="#dW8WQhnl4" opacity="1" fill-opacity="0" stroke="#000000" stroke-width="1" stroke-opacity="0"></use></g></g><g><use xlink:href="#g3dGHDtngq" opacity="1" fill="#5eb3d1" fill-opacity="1"></use><g><use xlink:href="#g3dGHDtngq" opacity="1" fill-opacity="0" stroke="#000000" stroke-width="1" stroke-opacity="0"></use></g></g><g><use xlink:href="#c5Rqj4gSsE" opacity="1" fill="#000000" fill-opacity="0"></use><g><use xlink:href="#c5Rqj4gSsE" opacity="1" fill-opacity="0" stroke="#000000" stroke-width="1" stroke-opacity="0"></use></g></g><g><use xlink:href="#ateQWGIRD" opacity="1" fill="#5eb3d1" fill-opacity="1"></use><g><use xlink:href="#ateQWGIRD" opacity="1" fill-opacity="0" stroke="#000000" stroke-width="1" stroke-opacity="0"></use></g></g><g><use xlink:href="#b80W6hfv1r" opacity="1" fill="#000000" fill-opacity="0"></use><g><use xlink:href="#b80W6hfv1r" opacity="1" fill-opacity="0" stroke="#000000" stroke-width="1" stroke-opacity="0"></use></g></g><g><use xlink:href="#gIAUrOIX5" opacity="1" fill="#5eb3d1" fill-opacity="1"></use><g><use xlink:href="#gIAUrOIX5" opacity="1" fill-opacity="0" stroke="#000000" stroke-width="1" stroke-opacity="0"></use></g></g><g><use xlink:href="#kyBaJPD" opacity="1" fill="#000000" fill-opacity="0"></use><g><use xlink:href="#kyBaJPD" opacity="1" fill-opacity="0" stroke="#000000" stroke-width="1" stroke-opacity="0"></use></g></g><g><use xlink:href="#l4sXtSaga" opacity="1" fill="#5eb3d1" fill-opacity="1"></use><g><use xlink:href="#l4sXtSaga" opacity="1" fill-opacity="0" stroke="#000000" stroke-width="1" stroke-opacity="0"></use></g></g><g><use xlink:href="#e9g9XWX12" opacity="1" fill="#000000" fill-opacity="0"></use><g><use xlink:href="#e9g9XWX12" opacity="1" fill-opacity="0" stroke="#000000" stroke-width="1" stroke-opacity="0"></use></g></g><g><use xlink:href="#a3FgIZZWe9" opacity="1" fill="#5eb3d1" fill-opacity="1"></use><g><use xlink:href="#a3FgIZZWe9" opacity="1" fill-opacity="0" stroke="#000000" stroke-width="1" stroke-opacity="0"></use></g></g><g><use xlink:href="#cxwGO0sxQ" opacity="1" fill="#000000" fill-opacity="0"></use><g><use xlink:href="#cxwGO0sxQ" opacity="1" fill-opacity="0" stroke="#000000" stroke-width="1" stroke-opacity="0"></use></g></g><g><use xlink:href="#brdja6s1P" opacity="1" fill="#5eb3d1" fill-opacity="1"></use><g><use xlink:href="#brdja6s1P" opacity="1" fill-opacity="0" stroke="#000000" stroke-width="1" stroke-opacity="0"></use></g></g><g><use xlink:href="#b104l3VGEE" opacity="1" fill="#000000" fill-opacity="0"></use><g><use xlink:href="#b104l3VGEE" opacity="1" fill-opacity="0" stroke="#000000" stroke-width="1" stroke-opacity="0"></use></g></g><g><use xlink:href="#b28OM0wPiS" opacity="1" fill="#5eb3d1" fill-opacity="1"></use><g><use xlink:href="#b28OM0wPiS" opacity="1" fill-opacity="0" stroke="#000000" stroke-width="1" stroke-opacity="0"></use></g></g><g><use xlink:href="#a1f5n9pd0w" opacity="1" fill="#000000" fill-opacity="0"></use><g><use xlink:href="#a1f5n9pd0w" opacity="1" fill-opacity="0" stroke="#000000" stroke-width="1" stroke-opacity="0"></use></g></g><g><use xlink:href="#eFwPRcV9E" opacity="1" fill="#5eb3d1" fill-opacity="1"></use><g><use xlink:href="#eFwPRcV9E" opacity="1" fill-opacity="0" stroke="#000000" stroke-width="1" stroke-opacity="0"></use></g></g><g><use xlink:href="#b1YSJZJjId" opacity="1" fill="#000000" fill-opacity="0"></use><g><use xlink:href="#b1YSJZJjId" opacity="1" fill-opacity="0" stroke="#000000" stroke-width="1" stroke-opacity="0"></use></g></g><g><use xlink:href="#auXSe3El7" opacity="1" fill="#dadddf" fill-opacity="1"></use><g><use xlink:href="#auXSe3El7" opacity="1" fill-opacity="0" stroke="#000000" stroke-width="1" stroke-opacity="0"></use></g></g><g><use xlink:href="#aW1Kq5SSK" opacity="1" fill="#000000" fill-opacity="0"></use><g><use xlink:href="#aW1Kq5SSK" opacity="1" fill-opacity="0" stroke="#000000" stroke-width="1" stroke-opacity="0"></use></g></g><g><use xlink:href="#a4TO5z8QP" opacity="1" fill="#c1c7c9" fill-opacity="1"></use><g><use xlink:href="#a4TO5z8QP" opacity="1" fill-opacity="0" stroke="#000000" stroke-width="1" stroke-opacity="0"></use></g></g><g><use xlink:href="#a3YhUkloK" opacity="1" fill="#000000" fill-opacity="0"></use><g><use xlink:href="#a3YhUkloK" opacity="1" fill-opacity="0" stroke="#000000" stroke-width="1" stroke-opacity="0"></use></g></g><g><use xlink:href="#cW59Nm2Zn" opacity="1" fill="#dadddf" fill-opacity="1"></use><g><use xlink:href="#cW59Nm2Zn" opacity="1" fill-opacity="0" stroke="#000000" stroke-width="1" stroke-opacity="0"></use></g></g><g><use xlink:href="#a2y9OSoSpq" opacity="1" fill="#000000" fill-opacity="0"></use><g><use xlink:href="#a2y9OSoSpq" opacity="1" fill-opacity="0" stroke="#000000" stroke-width="1" stroke-opacity="0"></use></g></g><g><use xlink:href="#aJjDDwuf" opacity="1" fill="#c1c7c9" fill-opacity="1"></use><g><use xlink:href="#aJjDDwuf" opacity="1" fill-opacity="0" stroke="#000000" stroke-width="1" stroke-opacity="0"></use></g></g><g><use xlink:href="#b3PT6a2lA" opacity="1" fill="#000000" fill-opacity="0"></use><g><use xlink:href="#b3PT6a2lA" opacity="1" fill-opacity="0" stroke="#000000" stroke-width="1" stroke-opacity="0"></use></g></g><g><use xlink:href="#crmUBknq8" opacity="1" fill="#87ced9" fill-opacity="1"></use><g><use xlink:href="#crmUBknq8" opacity="1" fill-opacity="0" stroke="#000000" stroke-width="1" stroke-opacity="0"></use></g></g><g><use xlink:href="#a1ExwIo97i" opacity="1" fill="#000000" fill-opacity="0"></use><g><use xlink:href="#a1ExwIo97i" opacity="1" fill-opacity="0" stroke="#000000" stroke-width="1" stroke-opacity="0"></use></g></g><g><use xlink:href="#a3UeyjqdNJ" opacity="1" fill="#5eb3d1" fill-opacity="1"></use><g><use xlink:href="#a3UeyjqdNJ" opacity="1" fill-opacity="0" stroke="#000000" stroke-width="1" stroke-opacity="0"></use></g></g><g><use xlink:href="#d1VsQZDbCO" opacity="1" fill="#000000" fill-opacity="0"></use><g><use xlink:href="#d1VsQZDbCO" opacity="1" fill-opacity="0" stroke="#000000" stroke-width="1" stroke-opacity="0"></use></g></g><g><use xlink:href="#eiihK7UVX" opacity="1" fill="#dadddf" fill-opacity="1"></use><g><use xlink:href="#eiihK7UVX" opacity="1" fill-opacity="0" stroke="#000000" stroke-width="1" stroke-opacity="0"></use></g></g><g><use xlink:href="#b1YZtywMXi" opacity="1" fill="#000000" fill-opacity="0"></use><g><use xlink:href="#b1YZtywMXi" opacity="1" fill-opacity="0" stroke="#000000" stroke-width="1" stroke-opacity="0"></use></g></g><g><use xlink:href="#ddizN4seN" opacity="1" fill="#0e5280" fill-opacity="1"></use><g><use xlink:href="#ddizN4seN" opacity="1" fill-opacity="0" stroke="#000000" stroke-width="1" stroke-opacity="0"></use></g></g><g><use xlink:href="#aq0tmye9J" opacity="1" fill="#000000" fill-opacity="0"></use><g><use xlink:href="#aq0tmye9J" opacity="1" fill-opacity="0" stroke="#000000" stroke-width="1" stroke-opacity="0"></use></g></g><g><use xlink:href="#lhvaAgqs1" opacity="1" fill="#0e5280" fill-opacity="1"></use><g><use xlink:href="#lhvaAgqs1" opacity="1" fill-opacity="0" stroke="#000000" stroke-width="1" stroke-opacity="0"></use></g></g><g><use xlink:href="#alCpwvg35" opacity="1" fill="#000000" fill-opacity="0"></use><g><use xlink:href="#alCpwvg35" opacity="1" fill-opacity="0" stroke="#000000" stroke-width="1" stroke-opacity="0"></use></g></g><g><use xlink:href="#d90CmeyFG" opacity="1" fill="#0e5280" fill-opacity="1"></use><g><use xlink:href="#d90CmeyFG" opacity="1" fill-opacity="0" stroke="#000000" stroke-width="1" stroke-opacity="0"></use></g></g><g><use xlink:href="#b22WYdfkiL" opacity="1" fill="#000000" fill-opacity="0"></use><g><use xlink:href="#b22WYdfkiL" opacity="1" fill-opacity="0" stroke="#000000" stroke-width="1" stroke-opacity="0"></use></g></g><g><use xlink:href="#ao15kpctz" opacity="1" fill="#0e5280" fill-opacity="1"></use><g><use xlink:href="#ao15kpctz" opacity="1" fill-opacity="0" stroke="#000000" stroke-width="1" stroke-opacity="0"></use></g></g><g><use xlink:href="#f2vfhw9Lns" opacity="1" fill="#000000" fill-opacity="0"></use><g><use xlink:href="#f2vfhw9Lns" opacity="1" fill-opacity="0" stroke="#000000" stroke-width="1" stroke-opacity="0"></use></g></g><g><use xlink:href="#arGCOMRWf" opacity="1" fill="#0e5280" fill-opacity="1"></use><g><use xlink:href="#arGCOMRWf" opacity="1" fill-opacity="0" stroke="#000000" stroke-width="1" stroke-opacity="0"></use></g></g><g><use xlink:href="#e9beydXgY" opacity="1" fill="#000000" fill-opacity="0"></use><g><use xlink:href="#e9beydXgY" opacity="1" fill-opacity="0" stroke="#000000" stroke-width="1" stroke-opacity="0"></use></g></g><g><use xlink:href="#alNMAKzCh" opacity="1" fill="#0e5280" fill-opacity="1"></use><g><use xlink:href="#alNMAKzCh" opacity="1" fill-opacity="0" stroke="#000000" stroke-width="1" stroke-opacity="0"></use></g></g><g><use xlink:href="#cSfkA9hNc" opacity="1" fill="#000000" fill-opacity="0"></use><g><use xlink:href="#cSfkA9hNc" opacity="1" fill-opacity="0" stroke="#000000" stroke-width="1" stroke-opacity="0"></use></g></g><g><use xlink:href="#b5A2GJKJdP" opacity="1" fill="#467a9c" fill-opacity="1"></use><g><use xlink:href="#b5A2GJKJdP" opacity="1" fill-opacity="0" stroke="#000000" stroke-width="1" stroke-opacity="0"></use></g></g><g><use xlink:href="#aSHt5B3yQ" opacity="1" fill="#000000" fill-opacity="0"></use><g><use xlink:href="#aSHt5B3yQ" opacity="1" fill-opacity="0" stroke="#000000" stroke-width="1" stroke-opacity="0"></use></g></g></g></g></svg>